solid OpenSCAD_Model
  facet normal -1 -0 -0
    outer loop
      vertex -15 -20 -2.5
      vertex -15 -20 2.5
      vertex -15 20 -2.5
    endloop
  endfacet
  facet normal -1 0 0
    outer loop
      vertex -15 20 -2.5
      vertex -15 -20 2.5
      vertex -15 20 2.5
    endloop
  endfacet
  facet normal 0 -1 0
    outer loop
      vertex -15 -20 2.5
      vertex -15 -20 -2.5
      vertex 11 -20 -2.5
    endloop
  endfacet
  facet normal 0 -1 0
    outer loop
      vertex 13 -20 -2.5
      vertex -15 -20 2.5
      vertex 11 -20 -2.5
    endloop
  endfacet
  facet normal -0 -1 -0
    outer loop
      vertex 13 -20 -2.5
      vertex 15 -20 -2.5
      vertex -15 -20 2.5
    endloop
  endfacet
  facet normal 0 -1 0
    outer loop
      vertex 15 -20 -2.5
      vertex 11 -20 2.5
      vertex -15 -20 2.5
    endloop
  endfacet
  facet normal 0 -1 0
    outer loop
      vertex 15 -20 -2.5
      vertex 15 -20 12.5
      vertex 11 -20 2.5
    endloop
  endfacet
  facet normal -0 -1 0
    outer loop
      vertex 11 -20 12.5
      vertex 11 -20 2.5
      vertex 15 -20 12.5
    endloop
  endfacet
  facet normal 0 0 -1
    outer loop
      vertex -10.445 10.5501 -2.5
      vertex -8 -12.5 -2.5
      vertex -11.8019 11.6322 -2.5
    endloop
  endfacet
  facet normal 0 -0 -1
    outer loop
      vertex -8.75302 14.0637 -2.5
      vertex -15 20 -2.5
      vertex 11 20 -2.5
    endloop
  endfacet
  facet normal 0 -0 -1
    outer loop
      vertex -15 -20 -2.5
      vertex -15 20 -2.5
      vertex -11.8019 -11.6322 -2.5
    endloop
  endfacet
  facet normal -0 -0 -1
    outer loop
      vertex -10.445 14.4499 -2.5
      vertex -15 20 -2.5
      vertex -8.75302 14.0637 -2.5
    endloop
  endfacet
  facet normal 0 0 -1
    outer loop
      vertex -15 -20 -2.5
      vertex -11.8019 -11.6322 -2.5
      vertex -11.8019 -13.3678 -2.5
    endloop
  endfacet
  facet normal 0 0 -1
    outer loop
      vertex -8 -12.5 -2.5
      vertex -4.5 -15 -2.5
      vertex -8.75302 -14.0637 -2.5
    endloop
  endfacet
  facet normal 0 0 -1
    outer loop
      vertex -15 -20 -2.5
      vertex -11.8019 -13.3678 -2.5
      vertex -10.445 -14.4499 -2.5
    endloop
  endfacet
  facet normal -0 0 -1
    outer loop
      vertex -15 -20 -2.5
      vertex -10.445 -14.4499 -2.5
      vertex 11 -20 -2.5
    endloop
  endfacet
  facet normal 0 0 -1
    outer loop
      vertex 10.5 -15 -2.5
      vertex 11 -20 -2.5
      vertex -4.5 -15 -2.5
    endloop
  endfacet
  facet normal -0 -0 -1
    outer loop
      vertex -8.75302 -10.9363 -2.5
      vertex -15 20 -2.5
      vertex -8 -12.5 -2.5
    endloop
  endfacet
  facet normal 0 -0 -1
    outer loop
      vertex -11.8019 13.3678 -2.5
      vertex -15 20 -2.5
      vertex -10.445 14.4499 -2.5
    endloop
  endfacet
  facet normal -0 -0 -1
    outer loop
      vertex -10.445 -10.5501 -2.5
      vertex -15 20 -2.5
      vertex -8.75302 -10.9363 -2.5
    endloop
  endfacet
  facet normal 0 -0 -1
    outer loop
      vertex -11.8019 -11.6322 -2.5
      vertex -15 20 -2.5
      vertex -10.445 -10.5501 -2.5
    endloop
  endfacet
  facet normal 0 0 -1
    outer loop
      vertex -11.8019 11.6322 -2.5
      vertex -15 20 -2.5
      vertex -11.8019 13.3678 -2.5
    endloop
  endfacet
  facet normal 0 0 -1
    outer loop
      vertex -8 -12.5 -2.5
      vertex -15 20 -2.5
      vertex -11.8019 11.6322 -2.5
    endloop
  endfacet
  facet normal 0 0 -1
    outer loop
      vertex -4.5 -15 -2.5
      vertex -8.75302 10.9363 -2.5
      vertex -8 12.5 -2.5
    endloop
  endfacet
  facet normal -0 0 -1
    outer loop
      vertex -4.5 15 -2.5
      vertex 11 20 -2.5
      vertex 10.5 15 -2.5
    endloop
  endfacet
  facet normal 0 0 -1
    outer loop
      vertex -4.5 -15 -2.5
      vertex -10.445 10.5501 -2.5
      vertex -8.75302 10.9363 -2.5
    endloop
  endfacet
  facet normal 0 -0 -1
    outer loop
      vertex -4.5 15 -2.5
      vertex -8.75302 14.0637 -2.5
      vertex 11 20 -2.5
    endloop
  endfacet
  facet normal 0 -0 -1
    outer loop
      vertex -8 12.5 -2.5
      vertex -8.75302 14.0637 -2.5
      vertex -4.5 15 -2.5
    endloop
  endfacet
  facet normal 0 0 -1
    outer loop
      vertex -4.5 -15 -2.5
      vertex -8 -12.5 -2.5
      vertex -10.445 10.5501 -2.5
    endloop
  endfacet
  facet normal 0 0 -1
    outer loop
      vertex -8.75302 -14.0637 -2.5
      vertex -4.5 -15 -2.5
      vertex 11 -20 -2.5
    endloop
  endfacet
  facet normal 0 0 -1
    outer loop
      vertex 11 -20 -2.5
      vertex 10.5 -15 -2.5
      vertex 11 20 -2.5
    endloop
  endfacet
  facet normal 0 -0 -1
    outer loop
      vertex 10.5 -15 -2.5
      vertex 10.5 15 -2.5
      vertex 11 20 -2.5
    endloop
  endfacet
  facet normal 0 0 -1
    outer loop
      vertex -8.75302 -14.0637 -2.5
      vertex 11 -20 -2.5
      vertex -10.445 -14.4499 -2.5
    endloop
  endfacet
  facet normal 0 0 -1
    outer loop
      vertex -4.5 -15 -2.5
      vertex -8 12.5 -2.5
      vertex -4.5 15 -2.5
    endloop
  endfacet
  facet normal 0 1 0
    outer loop
      vertex -15 20 -2.5
      vertex -15 20 2.5
      vertex 11 20 -2.5
    endloop
  endfacet
  facet normal 0 1 0
    outer loop
      vertex 11 20 -2.5
      vertex -15 20 2.5
      vertex 11 20 2.5
    endloop
  endfacet
  facet normal 0 1 0
    outer loop
      vertex 11 20 2.5
      vertex 11 20 12.5
      vertex 15 20 12.5
    endloop
  endfacet
  facet normal 0 1 -0
    outer loop
      vertex 11 20 2.5
      vertex 15 20 12.5
      vertex 11 20 -2.5
    endloop
  endfacet
  facet normal 0 1 0
    outer loop
      vertex 11 20 -2.5
      vertex 15 20 12.5
      vertex 15 20 -2.5
    endloop
  endfacet
  facet normal 0 5.55112e-017 0
    outer loop
      vertex 11 20 -2.5
      vertex 15 20 -2.5
      vertex 13 20 -2.5
    endloop
  endfacet
  facet normal 0 -0 1
    outer loop
      vertex -10.445 -14.4499 2.5
      vertex -15 -20 2.5
      vertex 11 -20 2.5
    endloop
  endfacet
  facet normal 0 -0 1
    outer loop
      vertex -15 20 2.5
      vertex -15 -20 2.5
      vertex -11.8019 -13.3678 2.5
    endloop
  endfacet
  facet normal 0 0 1
    outer loop
      vertex -11.8019 13.3678 2.5
      vertex -10.445 14.4499 2.5
      vertex -15 20 2.5
    endloop
  endfacet
  facet normal 0 0 1
    outer loop
      vertex -15 20 2.5
      vertex -11.8019 -13.3678 2.5
      vertex -11.8019 -11.6322 2.5
    endloop
  endfacet
  facet normal 0 0 1
    outer loop
      vertex -15 20 2.5
      vertex -11.8019 -11.6322 2.5
      vertex -10.445 -10.5501 2.5
    endloop
  endfacet
  facet normal 0 0 1
    outer loop
      vertex -15 20 2.5
      vertex -10.445 -10.5501 2.5
      vertex -8.75302 -10.9363 2.5
    endloop
  endfacet
  facet normal -0 -0 1
    outer loop
      vertex -4.5 -15 2.5
      vertex -8.75302 -14.0637 2.5
      vertex 11 -20 2.5
    endloop
  endfacet
  facet normal 0 0 1
    outer loop
      vertex -4.5 -15 2.5
      vertex -11.8019 11.6322 2.5
      vertex -8.75302 -10.9363 2.5
    endloop
  endfacet
  facet normal 0 -0 1
    outer loop
      vertex -11.8019 -13.3678 2.5
      vertex -15 -20 2.5
      vertex -10.445 -14.4499 2.5
    endloop
  endfacet
  facet normal 0 0 1
    outer loop
      vertex -15 20 2.5
      vertex -8.75302 -10.9363 2.5
      vertex -11.8019 11.6322 2.5
    endloop
  endfacet
  facet normal 0 0 1
    outer loop
      vertex -4.5 -15 2.5
      vertex -10.445 10.5501 2.5
      vertex -11.8019 11.6322 2.5
    endloop
  endfacet
  facet normal 0 0 1
    outer loop
      vertex -15 20 2.5
      vertex -11.8019 11.6322 2.5
      vertex -11.8019 13.3678 2.5
    endloop
  endfacet
  facet normal 0 0 1
    outer loop
      vertex 11 20 2.5
      vertex -15 20 2.5
      vertex -10.445 14.4499 2.5
    endloop
  endfacet
  facet normal 0 0 1
    outer loop
      vertex 11 20 2.5
      vertex -10.445 14.4499 2.5
      vertex -8.75302 14.0637 2.5
    endloop
  endfacet
  facet normal 0 0 1
    outer loop
      vertex -4.5 -15 2.5
      vertex -8.75302 -10.9363 2.5
      vertex -8 -12.5 2.5
    endloop
  endfacet
  facet normal 0 -0 1
    outer loop
      vertex -8.75302 -14.0637 2.5
      vertex -10.445 -14.4499 2.5
      vertex 11 -20 2.5
    endloop
  endfacet
  facet normal 0 0 1
    outer loop
      vertex 11 20 2.5
      vertex -8.75302 14.0637 2.5
      vertex -4.5 15 2.5
    endloop
  endfacet
  facet normal 0 0 1
    outer loop
      vertex 11 20 2.5
      vertex 10.5 15 2.5
      vertex 11 -20 2.5
    endloop
  endfacet
  facet normal 0 0 1
    outer loop
      vertex 11 20 2.5
      vertex -4.5 15 2.5
      vertex 10.5 15 2.5
    endloop
  endfacet
  facet normal 0 -0 1
    outer loop
      vertex 10.5 15 2.5
      vertex 10.5 -15 2.5
      vertex 11 -20 2.5
    endloop
  endfacet
  facet normal 0 -0 1
    outer loop
      vertex -8 -12.5 2.5
      vertex -8.75302 -14.0637 2.5
      vertex -4.5 -15 2.5
    endloop
  endfacet
  facet normal 0 0 1
    outer loop
      vertex -4.5 -15 2.5
      vertex -8.75302 10.9363 2.5
      vertex -10.445 10.5501 2.5
    endloop
  endfacet
  facet normal 0 0 1
    outer loop
      vertex -4.5 -15 2.5
      vertex -8 12.5 2.5
      vertex -8.75302 10.9363 2.5
    endloop
  endfacet
  facet normal 0 0 1
    outer loop
      vertex -8 12.5 2.5
      vertex -4.5 15 2.5
      vertex -8.75302 14.0637 2.5
    endloop
  endfacet
  facet normal 0 0 1
    outer loop
      vertex -4.5 -15 2.5
      vertex -4.5 15 2.5
      vertex -8 12.5 2.5
    endloop
  endfacet
  facet normal 0 -0 1
    outer loop
      vertex 10.5 -15 2.5
      vertex -4.5 -15 2.5
      vertex 11 -20 2.5
    endloop
  endfacet
  facet normal -1 1.77636e-016 -8.88178e-016
    outer loop
      vertex 11 -12.5 6
      vertex 11 20 12.5
      vertex 11 -20 2.5
    endloop
  endfacet
  facet normal -1 7.22641e-017 -1.77636e-016
    outer loop
      vertex 11 13.3678 9.80194
      vertex 11 20 12.5
      vertex 11 20 2.5
    endloop
  endfacet
  facet normal -1 0 0
    outer loop
      vertex 11 -20 12.5
      vertex 11 20 12.5
      vertex 11 -11.6322 9.80194
    endloop
  endfacet
  facet normal -1 0 0
    outer loop
      vertex 11 -20 12.5
      vertex 11 -11.6322 9.80194
      vertex 11 -13.3678 9.80194
    endloop
  endfacet
  facet normal -1 -7.22641e-017 -1.77636e-016
    outer loop
      vertex 11 -20 12.5
      vertex 11 -13.3678 9.80194
      vertex 11 -20 2.5
    endloop
  endfacet
  facet normal -1 -2.19539e-015 1.75077e-015
    outer loop
      vertex 11 -13.3678 9.80194
      vertex 11 -14.4499 8.44504
      vertex 11 -20 2.5
    endloop
  endfacet
  facet normal -1 -6.88267e-017 5.48875e-017
    outer loop
      vertex 11 10.5501 8.44504
      vertex 11 -20 2.5
      vertex 11 11.6322 9.80194
    endloop
  endfacet
  facet normal -1 -0 0
    outer loop
      vertex 11 -10.5501 8.44504
      vertex 11 20 12.5
      vertex 11 -10.9363 6.75302
    endloop
  endfacet
  facet normal -1 -0 0
    outer loop
      vertex 11 -10.9363 6.75302
      vertex 11 20 12.5
      vertex 11 -12.5 6
    endloop
  endfacet
  facet normal -1 -1.20286e-016 -2.49776e-016
    outer loop
      vertex 11 -14.0637 6.75302
      vertex 11 -12.5 6
      vertex 11 -20 2.5
    endloop
  endfacet
  facet normal -1 -0 0
    outer loop
      vertex 11 -11.6322 9.80194
      vertex 11 20 12.5
      vertex 11 -10.5501 8.44504
    endloop
  endfacet
  facet normal -1 -0 0
    outer loop
      vertex 11 11.6322 9.80194
      vertex 11 20 12.5
      vertex 11 13.3678 9.80194
    endloop
  endfacet
  facet normal -1 2.19539e-015 1.75077e-015
    outer loop
      vertex 11 14.4499 8.44504
      vertex 11 13.3678 9.80194
      vertex 11 20 2.5
    endloop
  endfacet
  facet normal -1 -1.9768e-016 6.13085e-016
    outer loop
      vertex 11 -20 2.5
      vertex 11 20 12.5
      vertex 11 11.6322 9.80194
    endloop
  endfacet
  facet normal -1 1.20286e-016 -2.49776e-016
    outer loop
      vertex 11 14.0637 6.75302
      vertex 11 20 2.5
      vertex 11 12.5 6
    endloop
  endfacet
  facet normal -1 -5.56728e-017 -1.2707e-017
    outer loop
      vertex 11 -20 2.5
      vertex 11 10.5501 8.44504
      vertex 11 10.9363 6.75302
    endloop
  endfacet
  facet normal -1 -4.46682e-017 -9.27545e-017
    outer loop
      vertex 11 -20 2.5
      vertex 11 10.9363 6.75302
      vertex 11 12.5 6
    endloop
  endfacet
  facet normal -1 -0 -5.07531e-016
    outer loop
      vertex 11 -20 2.5
      vertex 11 12.5 6
      vertex 11 20 2.5
    endloop
  endfacet
  facet normal -1 2.5718e-016 -5.86996e-017
    outer loop
      vertex 11 14.0637 6.75302
      vertex 11 14.4499 8.44504
      vertex 11 20 2.5
    endloop
  endfacet
  facet normal -1 -2.5718e-016 -5.86996e-017
    outer loop
      vertex 11 -14.0637 6.75302
      vertex 11 -20 2.5
      vertex 11 -14.4499 8.44504
    endloop
  endfacet
  facet normal -4.44089e-016 0 1
    outer loop
      vertex 11 20 12.5
      vertex 11 -20 12.5
      vertex 15 -20 12.5
    endloop
  endfacet
  facet normal -4.44089e-016 0 1
    outer loop
      vertex 15 20 12.5
      vertex 11 20 12.5
      vertex 15 -20 12.5
    endloop
  endfacet
  facet normal 1 8.65209e-017 1.18424e-016
    outer loop
      vertex 15 -14.4499 8.44504
      vertex 15 -20 12.5
      vertex 15 -20 -2.5
    endloop
  endfacet
  facet normal 1 -2.20713e-016 5.03762e-017
    outer loop
      vertex 15 14.4499 8.44504
      vertex 15 14.0637 6.75302
      vertex 15 20 -2.5
    endloop
  endfacet
  facet normal 1 0 0
    outer loop
      vertex 15 20 12.5
      vertex 15 -20 12.5
      vertex 15 -13.3678 9.80194
    endloop
  endfacet
  facet normal 1 2.20713e-016 5.03762e-017
    outer loop
      vertex 15 -14.0637 6.75302
      vertex 15 -14.4499 8.44504
      vertex 15 -20 -2.5
    endloop
  endfacet
  facet normal 1 0 0
    outer loop
      vertex 15 20 12.5
      vertex 15 -13.3678 9.80194
      vertex 15 -11.6322 9.80194
    endloop
  endfacet
  facet normal 1 8.1403e-017 -6.49168e-017
    outer loop
      vertex 15 10.5501 8.44504
      vertex 15 11.6322 9.80194
      vertex 15 -20 -2.5
    endloop
  endfacet
  facet normal 1 0 0
    outer loop
      vertex 15 20 12.5
      vertex 15 -11.6322 9.80194
      vertex 15 -10.5501 8.44504
    endloop
  endfacet
  facet normal 1 -2.98906e-017 2.21255e-016
    outer loop
      vertex 15 11.6322 9.80194
      vertex 15 -10.9363 6.75302
      vertex 15 -20 -2.5
    endloop
  endfacet
  facet normal 1 0 0
    outer loop
      vertex 15 20 12.5
      vertex 15 -10.5501 8.44504
      vertex 15 -10.9363 6.75302
    endloop
  endfacet
  facet normal 1 -1.75003e-016 3.63397e-016
    outer loop
      vertex 15 -10.9363 6.75302
      vertex 15 -12.5 6
      vertex 15 -20 -2.5
    endloop
  endfacet
  facet normal 1 0 0
    outer loop
      vertex 15 11.6322 9.80194
      vertex 15 13.3678 9.80194
      vertex 15 20 12.5
    endloop
  endfacet
  facet normal 1 -0 0
    outer loop
      vertex 15 -13.3678 9.80194
      vertex 15 -20 12.5
      vertex 15 -14.4499 8.44504
    endloop
  endfacet
  facet normal 1 0 0
    outer loop
      vertex 15 20 12.5
      vertex 15 -10.9363 6.75302
      vertex 15 11.6322 9.80194
    endloop
  endfacet
  facet normal 1 0 0
    outer loop
      vertex 15 14.4499 8.44504
      vertex 15 20 12.5
      vertex 15 13.3678 9.80194
    endloop
  endfacet
  facet normal 1 3.54206e-017 7.35516e-017
    outer loop
      vertex 15 12.5 6
      vertex 15 10.9363 6.75302
      vertex 15 -20 -2.5
    endloop
  endfacet
  facet normal 1 -8.65209e-017 1.18424e-016
    outer loop
      vertex 15 20 -2.5
      vertex 15 20 12.5
      vertex 15 14.4499 8.44504
    endloop
  endfacet
  facet normal 1 -0 2.08983e-016
    outer loop
      vertex 15 20 -2.5
      vertex 15 12.5 6
      vertex 15 -20 -2.5
    endloop
  endfacet
  facet normal 1 -7.06293e-017 1.46663e-016
    outer loop
      vertex 15 20 -2.5
      vertex 15 14.0637 6.75302
      vertex 15 12.5 6
    endloop
  endfacet
  facet normal 1 5.37504e-017 1.22682e-017
    outer loop
      vertex 15 10.9363 6.75302
      vertex 15 10.5501 8.44504
      vertex 15 -20 -2.5
    endloop
  endfacet
  facet normal 1 7.06293e-017 1.46663e-016
    outer loop
      vertex 15 -12.5 6
      vertex 15 -14.0637 6.75302
      vertex 15 -20 -2.5
    endloop
  endfacet
  facet normal -0 -0 -1
    outer loop
      vertex 13 -20 -2.5
      vertex 13 20 -2.5
      vertex 15 -20 -2.5
    endloop
  endfacet
  facet normal 0 0 -1
    outer loop
      vertex 15 -20 -2.5
      vertex 13 20 -2.5
      vertex 15 20 -2.5
    endloop
  endfacet
  facet normal 2.22045e-016 0 -1
    outer loop
      vertex 11 -20 -2.5
      vertex 11 20 -2.5
      vertex 13 -20 -2.5
    endloop
  endfacet
  facet normal 2.22045e-016 0 -1
    outer loop
      vertex 13 -20 -2.5
      vertex 11 20 -2.5
      vertex 13 20 -2.5
    endloop
  endfacet
  facet normal 0.62349 -0.781831 0
    outer loop
      vertex -10.445 -10.5501 -2.5
      vertex -10.445 -10.5501 2.5
      vertex -11.8019 -11.6322 2.5
    endloop
  endfacet
  facet normal 0.62349 -0.781831 0
    outer loop
      vertex -11.8019 -11.6322 -2.5
      vertex -10.445 -10.5501 -2.5
      vertex -11.8019 -11.6322 2.5
    endloop
  endfacet
  facet normal 1 0 0
    outer loop
      vertex -11.8019 -11.6322 -2.5
      vertex -11.8019 -11.6322 2.5
      vertex -11.8019 -13.3678 2.5
    endloop
  endfacet
  facet normal 1 0 0
    outer loop
      vertex -11.8019 -13.3678 -2.5
      vertex -11.8019 -11.6322 -2.5
      vertex -11.8019 -13.3678 2.5
    endloop
  endfacet
  facet normal -0.222521 -0.974928 -0
    outer loop
      vertex -8.75302 -10.9363 -2.5
      vertex -8.75302 -10.9363 2.5
      vertex -10.445 -10.5501 2.5
    endloop
  endfacet
  facet normal -0.222521 -0.974928 -0
    outer loop
      vertex -10.445 -10.5501 -2.5
      vertex -8.75302 -10.9363 -2.5
      vertex -10.445 -10.5501 2.5
    endloop
  endfacet
  facet normal -0.900969 -0.433884 0
    outer loop
      vertex -8 -12.5 2.5
      vertex -8.75302 -10.9363 2.5
      vertex -8 -12.5 -2.5
    endloop
  endfacet
  facet normal -0.900969 -0.433884 0
    outer loop
      vertex -8 -12.5 -2.5
      vertex -8.75302 -10.9363 2.5
      vertex -8.75302 -10.9363 -2.5
    endloop
  endfacet
  facet normal -0.900969 0.433884 0
    outer loop
      vertex -8 -12.5 2.5
      vertex -8 -12.5 -2.5
      vertex -8.75302 -14.0637 2.5
    endloop
  endfacet
  facet normal -0.900969 0.433884 0
    outer loop
      vertex -8.75302 -14.0637 2.5
      vertex -8 -12.5 -2.5
      vertex -8.75302 -14.0637 -2.5
    endloop
  endfacet
  facet normal -0.222521 0.974928 0
    outer loop
      vertex -8.75302 -14.0637 2.5
      vertex -8.75302 -14.0637 -2.5
      vertex -10.445 -14.4499 2.5
    endloop
  endfacet
  facet normal -0.222521 0.974928 0
    outer loop
      vertex -10.445 -14.4499 2.5
      vertex -8.75302 -14.0637 -2.5
      vertex -10.445 -14.4499 -2.5
    endloop
  endfacet
  facet normal 0.62349 0.781831 -0
    outer loop
      vertex -10.445 -14.4499 2.5
      vertex -10.445 -14.4499 -2.5
      vertex -11.8019 -13.3678 2.5
    endloop
  endfacet
  facet normal 0.62349 0.781831 -0
    outer loop
      vertex -11.8019 -13.3678 2.5
      vertex -10.445 -14.4499 -2.5
      vertex -11.8019 -13.3678 -2.5
    endloop
  endfacet
  facet normal 0.62349 -0.781831 0
    outer loop
      vertex -10.445 14.4499 -2.5
      vertex -10.445 14.4499 2.5
      vertex -11.8019 13.3678 2.5
    endloop
  endfacet
  facet normal 0.62349 -0.781831 0
    outer loop
      vertex -11.8019 13.3678 -2.5
      vertex -10.445 14.4499 -2.5
      vertex -11.8019 13.3678 2.5
    endloop
  endfacet
  facet normal 1 0 0
    outer loop
      vertex -11.8019 13.3678 -2.5
      vertex -11.8019 13.3678 2.5
      vertex -11.8019 11.6322 2.5
    endloop
  endfacet
  facet normal 1 0 0
    outer loop
      vertex -11.8019 11.6322 -2.5
      vertex -11.8019 13.3678 -2.5
      vertex -11.8019 11.6322 2.5
    endloop
  endfacet
  facet normal -0.222521 -0.974928 -0
    outer loop
      vertex -8.75302 14.0637 -2.5
      vertex -8.75302 14.0637 2.5
      vertex -10.445 14.4499 2.5
    endloop
  endfacet
  facet normal -0.222521 -0.974928 -0
    outer loop
      vertex -10.445 14.4499 -2.5
      vertex -8.75302 14.0637 -2.5
      vertex -10.445 14.4499 2.5
    endloop
  endfacet
  facet normal -0.900969 -0.433884 0
    outer loop
      vertex -8 12.5 2.5
      vertex -8.75302 14.0637 2.5
      vertex -8 12.5 -2.5
    endloop
  endfacet
  facet normal -0.900969 -0.433884 0
    outer loop
      vertex -8 12.5 -2.5
      vertex -8.75302 14.0637 2.5
      vertex -8.75302 14.0637 -2.5
    endloop
  endfacet
  facet normal -0.900969 0.433884 0
    outer loop
      vertex -8 12.5 2.5
      vertex -8 12.5 -2.5
      vertex -8.75302 10.9363 2.5
    endloop
  endfacet
  facet normal -0.900969 0.433884 0
    outer loop
      vertex -8.75302 10.9363 2.5
      vertex -8 12.5 -2.5
      vertex -8.75302 10.9363 -2.5
    endloop
  endfacet
  facet normal -0.222521 0.974928 0
    outer loop
      vertex -8.75302 10.9363 2.5
      vertex -8.75302 10.9363 -2.5
      vertex -10.445 10.5501 2.5
    endloop
  endfacet
  facet normal -0.222521 0.974928 0
    outer loop
      vertex -10.445 10.5501 2.5
      vertex -8.75302 10.9363 -2.5
      vertex -10.445 10.5501 -2.5
    endloop
  endfacet
  facet normal 0.62349 0.781831 -0
    outer loop
      vertex -10.445 10.5501 2.5
      vertex -10.445 10.5501 -2.5
      vertex -11.8019 11.6322 2.5
    endloop
  endfacet
  facet normal 0.62349 0.781831 -0
    outer loop
      vertex -11.8019 11.6322 2.5
      vertex -10.445 10.5501 -2.5
      vertex -11.8019 11.6322 -2.5
    endloop
  endfacet
  facet normal 1 0 0
    outer loop
      vertex -4.5 15 -2.5
      vertex -4.5 15 2.5
      vertex -4.5 -15 2.5
    endloop
  endfacet
  facet normal 1 0 0
    outer loop
      vertex -4.5 -15 -2.5
      vertex -4.5 15 -2.5
      vertex -4.5 -15 2.5
    endloop
  endfacet
  facet normal 0 -1 0
    outer loop
      vertex 10.5 15 -2.5
      vertex 10.5 15 2.5
      vertex -4.5 15 2.5
    endloop
  endfacet
  facet normal -0 -1 -0
    outer loop
      vertex -4.5 15 -2.5
      vertex 10.5 15 -2.5
      vertex -4.5 15 2.5
    endloop
  endfacet
  facet normal -1 0 0
    outer loop
      vertex 10.5 15 2.5
      vertex 10.5 15 -2.5
      vertex 10.5 -15 2.5
    endloop
  endfacet
  facet normal -1 0 0
    outer loop
      vertex 10.5 -15 2.5
      vertex 10.5 15 -2.5
      vertex 10.5 -15 -2.5
    endloop
  endfacet
  facet normal 0 1 0
    outer loop
      vertex 10.5 -15 2.5
      vertex 10.5 -15 -2.5
      vertex -4.5 -15 2.5
    endloop
  endfacet
  facet normal 0 1 -0
    outer loop
      vertex -4.5 -15 2.5
      vertex 10.5 -15 -2.5
      vertex -4.5 -15 -2.5
    endloop
  endfacet
  facet normal 2.76885e-016 -0.781831 -0.62349
    outer loop
      vertex 11 -10.5501 8.44504
      vertex 15 -10.5501 8.44504
      vertex 15 -11.6322 9.80194
    endloop
  endfacet
  facet normal -0 -0.781831 -0.62349
    outer loop
      vertex 11 -11.6322 9.80194
      vertex 11 -10.5501 8.44504
      vertex 15 -11.6322 9.80194
    endloop
  endfacet
  facet normal 0 0 -1
    outer loop
      vertex 15 -11.6322 9.80194
      vertex 15 -13.3678 9.80194
      vertex 11 -11.6322 9.80194
    endloop
  endfacet
  facet normal 0 0 -1
    outer loop
      vertex 11 -11.6322 9.80194
      vertex 15 -13.3678 9.80194
      vertex 11 -13.3678 9.80194
    endloop
  endfacet
  facet normal -4.94096e-017 -0.974928 0.222521
    outer loop
      vertex 11 -10.9363 6.75302
      vertex 15 -10.9363 6.75302
      vertex 15 -10.5501 8.44504
    endloop
  endfacet
  facet normal -9.88192e-017 -0.974928 0.222521
    outer loop
      vertex 11 -10.5501 8.44504
      vertex 11 -10.9363 6.75302
      vertex 15 -10.5501 8.44504
    endloop
  endfacet
  facet normal -2.00055e-016 -0.433884 0.900969
    outer loop
      vertex 11 -12.5 6
      vertex 15 -12.5 6
      vertex 15 -10.9363 6.75302
    endloop
  endfacet
  facet normal -2.00055e-016 -0.433884 0.900969
    outer loop
      vertex 11 -10.9363 6.75302
      vertex 11 -12.5 6
      vertex 15 -10.9363 6.75302
    endloop
  endfacet
  facet normal -2.08543e-016 0.433884 0.900969
    outer loop
      vertex 15 -14.0637 6.75302
      vertex 15 -12.5 6
      vertex 11 -12.5 6
    endloop
  endfacet
  facet normal -2.00055e-016 0.433884 0.900969
    outer loop
      vertex 11 -14.0637 6.75302
      vertex 15 -14.0637 6.75302
      vertex 11 -12.5 6
    endloop
  endfacet
  facet normal -4.94096e-017 0.974928 0.222521
    outer loop
      vertex 15 -14.0637 6.75302
      vertex 11 -14.0637 6.75302
      vertex 15 -14.4499 8.44504
    endloop
  endfacet
  facet normal -9.88192e-017 0.974928 0.222521
    outer loop
      vertex 15 -14.4499 8.44504
      vertex 11 -14.0637 6.75302
      vertex 11 -14.4499 8.44504
    endloop
  endfacet
  facet normal 2.76885e-016 0.781831 -0.62349
    outer loop
      vertex 15 -14.4499 8.44504
      vertex 11 -14.4499 8.44504
      vertex 15 -13.3678 9.80194
    endloop
  endfacet
  facet normal 0 0.781831 -0.62349
    outer loop
      vertex 15 -13.3678 9.80194
      vertex 11 -14.4499 8.44504
      vertex 11 -13.3678 9.80194
    endloop
  endfacet
  facet normal 2.76885e-016 -0.781831 -0.62349
    outer loop
      vertex 11 14.4499 8.44504
      vertex 15 14.4499 8.44504
      vertex 15 13.3678 9.80194
    endloop
  endfacet
  facet normal -0 -0.781831 -0.62349
    outer loop
      vertex 11 13.3678 9.80194
      vertex 11 14.4499 8.44504
      vertex 15 13.3678 9.80194
    endloop
  endfacet
  facet normal 0 0 -1
    outer loop
      vertex 15 13.3678 9.80194
      vertex 15 11.6322 9.80194
      vertex 11 13.3678 9.80194
    endloop
  endfacet
  facet normal 0 0 -1
    outer loop
      vertex 11 13.3678 9.80194
      vertex 15 11.6322 9.80194
      vertex 11 11.6322 9.80194
    endloop
  endfacet
  facet normal -4.94096e-017 -0.974928 0.222521
    outer loop
      vertex 11 14.0637 6.75302
      vertex 15 14.0637 6.75302
      vertex 15 14.4499 8.44504
    endloop
  endfacet
  facet normal -9.88192e-017 -0.974928 0.222521
    outer loop
      vertex 11 14.4499 8.44504
      vertex 11 14.0637 6.75302
      vertex 15 14.4499 8.44504
    endloop
  endfacet
  facet normal -2.00055e-016 -0.433884 0.900969
    outer loop
      vertex 11 12.5 6
      vertex 15 12.5 6
      vertex 15 14.0637 6.75302
    endloop
  endfacet
  facet normal -2.00055e-016 -0.433884 0.900969
    outer loop
      vertex 11 14.0637 6.75302
      vertex 11 12.5 6
      vertex 15 14.0637 6.75302
    endloop
  endfacet
  facet normal -2.08543e-016 0.433884 0.900969
    outer loop
      vertex 15 10.9363 6.75302
      vertex 15 12.5 6
      vertex 11 12.5 6
    endloop
  endfacet
  facet normal -2.00055e-016 0.433884 0.900969
    outer loop
      vertex 11 10.9363 6.75302
      vertex 15 10.9363 6.75302
      vertex 11 12.5 6
    endloop
  endfacet
  facet normal -4.94096e-017 0.974928 0.222521
    outer loop
      vertex 15 10.9363 6.75302
      vertex 11 10.9363 6.75302
      vertex 15 10.5501 8.44504
    endloop
  endfacet
  facet normal -9.88192e-017 0.974928 0.222521
    outer loop
      vertex 15 10.5501 8.44504
      vertex 11 10.9363 6.75302
      vertex 11 10.5501 8.44504
    endloop
  endfacet
  facet normal 2.76885e-016 0.781831 -0.62349
    outer loop
      vertex 15 10.5501 8.44504
      vertex 11 10.5501 8.44504
      vertex 15 11.6322 9.80194
    endloop
  endfacet
  facet normal 0 0.781831 -0.62349
    outer loop
      vertex 15 11.6322 9.80194
      vertex 11 10.5501 8.44504
      vertex 11 11.6322 9.80194
    endloop
  endfacet
endsolid OpenSCAD_Model
