solid OpenSCAD_Model
  facet normal -1 0 0
    outer loop
      vertex -16.875 -4.875 0
      vertex -16.875 -4.875 17.25
      vertex -16.875 12.375 0
    endloop
  endfacet
  facet normal -1 0 0
    outer loop
      vertex -16.875 12.375 0
      vertex -16.875 -4.875 17.25
      vertex -16.875 12.375 17.25
    endloop
  endfacet
  facet normal 0 -1 0
    outer loop
      vertex -12.75 -4.875 2.25
      vertex -16.875 -4.875 0
      vertex 0.375 -4.875 0
    endloop
  endfacet
  facet normal 0 -1 0
    outer loop
      vertex -6.375 -4.875 12.75
      vertex -0.75 -4.875 12.75
      vertex 0.375 -4.875 17.25
    endloop
  endfacet
  facet normal 0 -1 0
    outer loop
      vertex -8.25 -4.875 2.25
      vertex -12.75 -4.875 2.25
      vertex 0.375 -4.875 0
    endloop
  endfacet
  facet normal 0 -1 0
    outer loop
      vertex -16.875 -4.875 17.25
      vertex -16.875 -4.875 0
      vertex -12.75 -4.875 2.25
    endloop
  endfacet
  facet normal 0 -1 0
    outer loop
      vertex -16.875 -4.875 17.25
      vertex -12.75 -4.875 2.25
      vertex -12.75 -4.875 6.75
    endloop
  endfacet
  facet normal 0 -1 0
    outer loop
      vertex -6.375 -4.875 6.375
      vertex -8.25 -4.875 6.375
      vertex -6.375 -4.875 4.125
    endloop
  endfacet
  facet normal 0 -1 0
    outer loop
      vertex -12.75 -4.875 10.5
      vertex -12.75 -4.875 6.75
      vertex -8.25 -4.875 6.75
    endloop
  endfacet
  facet normal 0 -1 0
    outer loop
      vertex -16.875 -4.875 17.25
      vertex -12.75 -4.875 6.75
      vertex -12.75 -4.875 10.5
    endloop
  endfacet
  facet normal 0 -1 0
    outer loop
      vertex 0.375 -4.875 17.25
      vertex -16.875 -4.875 17.25
      vertex -12.75 -4.875 15
    endloop
  endfacet
  facet normal 0 -1 0
    outer loop
      vertex 0.375 -4.875 17.25
      vertex -12.75 -4.875 15
      vertex -8.25 -4.875 15
    endloop
  endfacet
  facet normal 0 -1 0
    outer loop
      vertex -6.375 -4.875 10.875
      vertex -6.375 -4.875 12.75
      vertex -8.25 -4.875 10.875
    endloop
  endfacet
  facet normal 0 -1 0
    outer loop
      vertex -6.375 -4.875 12.75
      vertex -8.25 -4.875 15
      vertex -8.25 -4.875 10.875
    endloop
  endfacet
  facet normal 0 -1 0
    outer loop
      vertex 0.375 -4.875 17.25
      vertex -8.25 -4.875 15
      vertex -6.375 -4.875 12.75
    endloop
  endfacet
  facet normal 0 -1 0
    outer loop
      vertex 0.375 -4.875 17.25
      vertex -0.75 -4.875 12.75
      vertex 0.375 -4.875 0
    endloop
  endfacet
  facet normal 0 -1 0
    outer loop
      vertex -0.75 -4.875 6.375
      vertex -0.75 -4.875 4.125
      vertex 0.375 -4.875 0
    endloop
  endfacet
  facet normal 0 -1 0
    outer loop
      vertex -0.75 -4.875 12.75
      vertex -0.75 -4.875 10.5
      vertex 0.375 -4.875 0
    endloop
  endfacet
  facet normal 0 -1 0
    outer loop
      vertex -6.375 -4.875 4.125
      vertex -8.25 -4.875 2.25
      vertex 0.375 -4.875 0
    endloop
  endfacet
  facet normal 0 -1 0
    outer loop
      vertex -0.75 -4.875 10.5
      vertex -0.75 -4.875 6.375
      vertex 0.375 -4.875 0
    endloop
  endfacet
  facet normal 0 -1 0
    outer loop
      vertex -0.75 -4.875 10.5
      vertex -2.25 -4.875 10.5
      vertex -0.75 -4.875 6.375
    endloop
  endfacet
  facet normal 0 -1 0
    outer loop
      vertex -8.25 -4.875 10.5
      vertex -12.75 -4.875 10.5
      vertex -8.25 -4.875 6.75
    endloop
  endfacet
  facet normal 0 -1 0
    outer loop
      vertex -2.25 -4.875 6.375
      vertex -0.75 -4.875 6.375
      vertex -2.25 -4.875 10.5
    endloop
  endfacet
  facet normal 0 -1 0
    outer loop
      vertex -8.25 -4.875 6.375
      vertex -8.25 -4.875 2.25
      vertex -6.375 -4.875 4.125
    endloop
  endfacet
  facet normal 0 -1 0
    outer loop
      vertex -12.75 -4.875 10.5
      vertex -12.75 -4.875 15
      vertex -16.875 -4.875 17.25
    endloop
  endfacet
  facet normal 0 -1 0
    outer loop
      vertex -0.75 -4.875 4.125
      vertex -6.375 -4.875 4.125
      vertex 0.375 -4.875 0
    endloop
  endfacet
  facet normal 0 0 -1
    outer loop
      vertex -16.875 -4.875 0
      vertex -16.875 12.375 0
      vertex 0.375 -4.875 0
    endloop
  endfacet
  facet normal 0 0 -1
    outer loop
      vertex 0.375 9 0
      vertex -16.875 12.375 0
      vertex 0.375 12.375 0
    endloop
  endfacet
  facet normal 0 0 -1
    outer loop
      vertex 0.375 0 0
      vertex -16.875 12.375 0
      vertex 0.375 9 0
    endloop
  endfacet
  facet normal 0 0 -1
    outer loop
      vertex 0.375 9 0
      vertex 26.25 9 0
      vertex 0.375 0 0
    endloop
  endfacet
  facet normal 0 0 -1
    outer loop
      vertex 26.25 9 0
      vertex 26.25 17.25 0
      vertex 39 17.25 0
    endloop
  endfacet
  facet normal 0 0 -1
    outer loop
      vertex 28.5 9 0
      vertex 39 17.25 0
      vertex 39 9 0
    endloop
  endfacet
  facet normal 0 0 -1
    outer loop
      vertex 26.25 0 0
      vertex 39 -8.25 0
      vertex 26.25 -8.25 0
    endloop
  endfacet
  facet normal 0 0 -1
    outer loop
      vertex 26.25 9 0
      vertex 39 17.25 0
      vertex 28.5 9 0
    endloop
  endfacet
  facet normal 0 0 -1
    outer loop
      vertex 28.5 0 0
      vertex 39 0 0
      vertex 39 -8.25 0
    endloop
  endfacet
  facet normal 0 0 -1
    outer loop
      vertex 0.375 0 0
      vertex 28.5 9 0
      vertex 26.25 0 0
    endloop
  endfacet
  facet normal 0 0 -1
    outer loop
      vertex 26.25 0 0
      vertex 28.5 0 0
      vertex 39 -8.25 0
    endloop
  endfacet
  facet normal 0 0 -1
    outer loop
      vertex 0.375 0 0
      vertex 26.25 9 0
      vertex 28.5 9 0
    endloop
  endfacet
  facet normal 0 0 -1
    outer loop
      vertex 0.375 -4.875 0
      vertex -16.875 12.375 0
      vertex 0.375 0 0
    endloop
  endfacet
  facet normal 0 0 -1
    outer loop
      vertex 28.5 0 0
      vertex 26.25 0 0
      vertex 28.5 9 0
    endloop
  endfacet
  facet normal 0 1 0
    outer loop
      vertex -16.875 12.375 0
      vertex -16.875 12.375 17.25
      vertex 0.375 12.375 0
    endloop
  endfacet
  facet normal 0 1 0
    outer loop
      vertex 0.375 12.375 0
      vertex -16.875 12.375 17.25
      vertex 0.375 12.375 17.25
    endloop
  endfacet
  facet normal 0 0 1
    outer loop
      vertex -16.875 12.375 17.25
      vertex -16.875 -4.875 17.25
      vertex 0.375 -4.875 17.25
    endloop
  endfacet
  facet normal 0 0 1
    outer loop
      vertex 26.25 0 17.25
      vertex -16.875 12.375 17.25
      vertex 0.375 0 17.25
    endloop
  endfacet
  facet normal 0 0 1
    outer loop
      vertex 0.375 0 17.25
      vertex -16.875 12.375 17.25
      vertex 0.375 -4.875 17.25
    endloop
  endfacet
  facet normal 0 0 1
    outer loop
      vertex 28.5 0 17.25
      vertex -16.875 12.375 17.25
      vertex 26.25 0 17.25
    endloop
  endfacet
  facet normal 0 0 1
    outer loop
      vertex 39 -8.25 17.25
      vertex 26.25 0 17.25
      vertex 26.25 -8.25 17.25
    endloop
  endfacet
  facet normal 0 0 1
    outer loop
      vertex 28.5 0 17.25
      vertex 26.25 0 17.25
      vertex 39 -8.25 17.25
    endloop
  endfacet
  facet normal 0 0 1
    outer loop
      vertex 39 0 17.25
      vertex 28.5 0 17.25
      vertex 39 -8.25 17.25
    endloop
  endfacet
  facet normal 0 0 1
    outer loop
      vertex 26.25 17.25 17.25
      vertex 39 9 17.25
      vertex 39 17.25 17.25
    endloop
  endfacet
  facet normal 0 0 1
    outer loop
      vertex 0.375 9 17.25
      vertex 0.375 12.375 17.25
      vertex -16.875 12.375 17.25
    endloop
  endfacet
  facet normal 0 0 1
    outer loop
      vertex 28.5 0 17.25
      vertex 0.375 9 17.25
      vertex -16.875 12.375 17.25
    endloop
  endfacet
  facet normal 0 0 1
    outer loop
      vertex 28.5 0 17.25
      vertex 26.25 9 17.25
      vertex 0.375 9 17.25
    endloop
  endfacet
  facet normal 0 0 1
    outer loop
      vertex 28.5 0 17.25
      vertex 28.5 9 17.25
      vertex 26.25 9 17.25
    endloop
  endfacet
  facet normal 0 0 1
    outer loop
      vertex 26.25 17.25 17.25
      vertex 28.5 9 17.25
      vertex 39 9 17.25
    endloop
  endfacet
  facet normal 0 0 1
    outer loop
      vertex 26.25 17.25 17.25
      vertex 26.25 9 17.25
      vertex 28.5 9 17.25
    endloop
  endfacet
  facet normal 1 0 0
    outer loop
      vertex 0.375 -4.875 17.25
      vertex 0.375 -4.875 0
      vertex 0.375 0 0
    endloop
  endfacet
  facet normal 1 0 0
    outer loop
      vertex 0.375 0 17.25
      vertex 0.375 -4.875 17.25
      vertex 0.375 0 0
    endloop
  endfacet
  facet normal 1 0 0
    outer loop
      vertex -12.75 -0.75 6.75
      vertex -12.75 -3 4.5
      vertex -12.75 -0.75 4.5
    endloop
  endfacet
  facet normal 1 0 0
    outer loop
      vertex -12.75 -4.875 6.75
      vertex -12.75 -3 4.5
      vertex -12.75 -0.75 6.75
    endloop
  endfacet
  facet normal 1 0 0
    outer loop
      vertex -12.75 -3 2.25
      vertex -12.75 -3 4.5
      vertex -12.75 -4.875 6.75
    endloop
  endfacet
  facet normal 1 0 0
    outer loop
      vertex -12.75 -4.875 2.25
      vertex -12.75 -3 2.25
      vertex -12.75 -4.875 6.75
    endloop
  endfacet
  facet normal 0 0 1
    outer loop
      vertex -8.25 -4.875 2.25
      vertex -8.25 -0.75 2.25
      vertex -10.5 -0.75 2.25
    endloop
  endfacet
  facet normal 0 0 1
    outer loop
      vertex -12.75 -3 2.25
      vertex -8.25 -4.875 2.25
      vertex -10.5 -3 2.25
    endloop
  endfacet
  facet normal 0 0 1
    outer loop
      vertex -10.5 -3 2.25
      vertex -8.25 -4.875 2.25
      vertex -10.5 -0.75 2.25
    endloop
  endfacet
  facet normal 0 0 1
    outer loop
      vertex -12.75 -4.875 2.25
      vertex -8.25 -4.875 2.25
      vertex -12.75 -3 2.25
    endloop
  endfacet
  facet normal -1 0 0
    outer loop
      vertex -8.25 -4.875 2.25
      vertex -8.25 -4.875 6.375
      vertex -8.25 -0.75 2.25
    endloop
  endfacet
  facet normal -1 0 0
    outer loop
      vertex -8.25 -0.75 2.25
      vertex -8.25 -4.875 6.375
      vertex -8.25 -0.75 6.375
    endloop
  endfacet
  facet normal 0 0 1
    outer loop
      vertex -6.375 -4.875 6.375
      vertex -6.375 -0.75 6.375
      vertex -8.25 -0.75 6.375
    endloop
  endfacet
  facet normal 0 0 1
    outer loop
      vertex -8.25 -4.875 6.375
      vertex -6.375 -4.875 6.375
      vertex -8.25 -0.75 6.375
    endloop
  endfacet
  facet normal 1 0 0
    outer loop
      vertex -6.375 -0.75 4.125
      vertex -6.375 -0.75 6.375
      vertex -6.375 -4.875 6.375
    endloop
  endfacet
  facet normal 1 0 0
    outer loop
      vertex -6.375 -4.875 4.125
      vertex -6.375 -0.75 4.125
      vertex -6.375 -4.875 6.375
    endloop
  endfacet
  facet normal 0 0 1
    outer loop
      vertex -0.75 -4.875 4.125
      vertex -0.75 -0.75 4.125
      vertex -6.375 -0.75 4.125
    endloop
  endfacet
  facet normal 0 0 1
    outer loop
      vertex -6.375 -4.875 4.125
      vertex -0.75 -4.875 4.125
      vertex -6.375 -0.75 4.125
    endloop
  endfacet
  facet normal -1 0 0
    outer loop
      vertex -0.75 -0.75 6.375
      vertex -0.75 -0.75 4.125
      vertex -0.75 -4.875 6.375
    endloop
  endfacet
  facet normal -1 0 0
    outer loop
      vertex -0.75 -4.875 6.375
      vertex -0.75 -0.75 4.125
      vertex -0.75 -4.875 4.125
    endloop
  endfacet
  facet normal 0 0 -1
    outer loop
      vertex -2.25 -4.875 6.375
      vertex -2.25 -0.75 6.375
      vertex -0.75 -4.875 6.375
    endloop
  endfacet
  facet normal 0 0 -1
    outer loop
      vertex -0.75 -4.875 6.375
      vertex -2.25 -0.75 6.375
      vertex -0.75 -0.75 6.375
    endloop
  endfacet
  facet normal -1 0 0
    outer loop
      vertex -2.25 -0.75 10.5
      vertex -2.25 -0.75 6.375
      vertex -2.25 -4.875 10.5
    endloop
  endfacet
  facet normal -1 0 0
    outer loop
      vertex -2.25 -4.875 10.5
      vertex -2.25 -0.75 6.375
      vertex -2.25 -4.875 6.375
    endloop
  endfacet
  facet normal 0 0 1
    outer loop
      vertex -0.75 -4.875 10.5
      vertex -0.75 -0.75 10.5
      vertex -2.25 -0.75 10.5
    endloop
  endfacet
  facet normal 0 0 1
    outer loop
      vertex -2.25 -4.875 10.5
      vertex -0.75 -4.875 10.5
      vertex -2.25 -0.75 10.5
    endloop
  endfacet
  facet normal -1 0 0
    outer loop
      vertex -0.75 -0.75 12.75
      vertex -0.75 -0.75 10.5
      vertex -0.75 -4.875 12.75
    endloop
  endfacet
  facet normal -1 0 0
    outer loop
      vertex -0.75 -4.875 12.75
      vertex -0.75 -0.75 10.5
      vertex -0.75 -4.875 10.5
    endloop
  endfacet
  facet normal 0 0 -1
    outer loop
      vertex -0.75 -0.75 12.75
      vertex -0.75 -4.875 12.75
      vertex -6.375 -0.75 12.75
    endloop
  endfacet
  facet normal 0 0 -1
    outer loop
      vertex -6.375 -0.75 12.75
      vertex -0.75 -4.875 12.75
      vertex -6.375 -4.875 12.75
    endloop
  endfacet
  facet normal 1 0 0
    outer loop
      vertex -6.375 -0.75 10.875
      vertex -6.375 -0.75 12.75
      vertex -6.375 -4.875 12.75
    endloop
  endfacet
  facet normal 1 0 0
    outer loop
      vertex -6.375 -4.875 10.875
      vertex -6.375 -0.75 10.875
      vertex -6.375 -4.875 12.75
    endloop
  endfacet
  facet normal 0 0 -1
    outer loop
      vertex -6.375 -0.75 10.875
      vertex -6.375 -4.875 10.875
      vertex -8.25 -0.75 10.875
    endloop
  endfacet
  facet normal 0 0 -1
    outer loop
      vertex -8.25 -0.75 10.875
      vertex -6.375 -4.875 10.875
      vertex -8.25 -4.875 10.875
    endloop
  endfacet
  facet normal -1 0 0
    outer loop
      vertex -8.25 -4.875 10.875
      vertex -8.25 -4.875 15
      vertex -8.25 -0.75 10.875
    endloop
  endfacet
  facet normal -1 0 0
    outer loop
      vertex -8.25 -0.75 10.875
      vertex -8.25 -4.875 15
      vertex -8.25 -0.75 15
    endloop
  endfacet
  facet normal 0 0 -1
    outer loop
      vertex -10.5 -3 15
      vertex -10.5 -0.75 15
      vertex -8.25 -0.75 15
    endloop
  endfacet
  facet normal 0 0 -1
    outer loop
      vertex -10.5 -3 15
      vertex -8.25 -0.75 15
      vertex -8.25 -4.875 15
    endloop
  endfacet
  facet normal 0 0 -1
    outer loop
      vertex -10.5 -3 15
      vertex -8.25 -4.875 15
      vertex -12.75 -3 15
    endloop
  endfacet
  facet normal 0 0 -1
    outer loop
      vertex -8.25 -4.875 15
      vertex -12.75 -4.875 15
      vertex -12.75 -3 15
    endloop
  endfacet
  facet normal 1 0 0
    outer loop
      vertex -12.75 -0.75 10.5
      vertex -12.75 -0.75 13.125
      vertex -12.75 -3 13.125
    endloop
  endfacet
  facet normal 1 0 0
    outer loop
      vertex -12.75 -4.875 15
      vertex -12.75 -0.75 10.5
      vertex -12.75 -3 13.125
    endloop
  endfacet
  facet normal 1 0 0
    outer loop
      vertex -12.75 -3 15
      vertex -12.75 -4.875 15
      vertex -12.75 -3 13.125
    endloop
  endfacet
  facet normal 1 0 0
    outer loop
      vertex -12.75 -4.875 15
      vertex -12.75 -4.875 10.5
      vertex -12.75 -0.75 10.5
    endloop
  endfacet
  facet normal 0 0 1
    outer loop
      vertex -8.25 -4.875 10.5
      vertex -8.25 -0.75 10.5
      vertex -12.75 -0.75 10.5
    endloop
  endfacet
  facet normal 0 0 1
    outer loop
      vertex -12.75 -4.875 10.5
      vertex -8.25 -4.875 10.5
      vertex -12.75 -0.75 10.5
    endloop
  endfacet
  facet normal 1 0 0
    outer loop
      vertex -8.25 -0.75 6.75
      vertex -8.25 -0.75 10.5
      vertex -8.25 -4.875 10.5
    endloop
  endfacet
  facet normal 1 0 0
    outer loop
      vertex -8.25 -4.875 6.75
      vertex -8.25 -0.75 6.75
      vertex -8.25 -4.875 10.5
    endloop
  endfacet
  facet normal 0 0 -1
    outer loop
      vertex -8.25 -0.75 6.75
      vertex -8.25 -4.875 6.75
      vertex -12.75 -0.75 6.75
    endloop
  endfacet
  facet normal 0 0 -1
    outer loop
      vertex -12.75 -0.75 6.75
      vertex -8.25 -4.875 6.75
      vertex -12.75 -4.875 6.75
    endloop
  endfacet
  facet normal 0 -1 0
    outer loop
      vertex 0.375 0 17.25
      vertex 0.375 0 0
      vertex 26.25 0 0
    endloop
  endfacet
  facet normal 0 -1 0
    outer loop
      vertex 26.25 0 17.25
      vertex 0.375 0 17.25
      vertex 26.25 0 0
    endloop
  endfacet
  facet normal -1 0 0
    outer loop
      vertex 26.25 -8.25 0
      vertex 26.25 -8.25 17.25
      vertex 26.25 0 0
    endloop
  endfacet
  facet normal -1 0 0
    outer loop
      vertex 26.25 0 0
      vertex 26.25 -8.25 17.25
      vertex 26.25 0 17.25
    endloop
  endfacet
  facet normal 0 -1 0
    outer loop
      vertex 26.25 -8.25 17.25
      vertex 26.25 -8.25 0
      vertex 39 -8.25 0
    endloop
  endfacet
  facet normal 0 -1 0
    outer loop
      vertex 39 -8.25 17.25
      vertex 26.25 -8.25 17.25
      vertex 39 -8.25 0
    endloop
  endfacet
  facet normal 1 0 0
    outer loop
      vertex 39 -8.25 17.25
      vertex 39 -8.25 0
      vertex 39 0 0
    endloop
  endfacet
  facet normal 1 0 0
    outer loop
      vertex 39 0 17.25
      vertex 39 -8.25 17.25
      vertex 39 0 0
    endloop
  endfacet
  facet normal 0 1 0
    outer loop
      vertex 39 0 17.25
      vertex 39 0 0
      vertex 28.5 0 17.25
    endloop
  endfacet
  facet normal 0 1 0
    outer loop
      vertex 28.5 0 17.25
      vertex 39 0 0
      vertex 28.5 0 0
    endloop
  endfacet
  facet normal 1 0 0
    outer loop
      vertex 28.5 0 17.25
      vertex 28.5 0 0
      vertex 28.5 9 0
    endloop
  endfacet
  facet normal 1 0 0
    outer loop
      vertex 28.5 9 17.25
      vertex 28.5 0 17.25
      vertex 28.5 9 0
    endloop
  endfacet
  facet normal 0 -1 0
    outer loop
      vertex 28.5 9 17.25
      vertex 28.5 9 0
      vertex 39 9 0
    endloop
  endfacet
  facet normal 0 -1 0
    outer loop
      vertex 39 9 17.25
      vertex 28.5 9 17.25
      vertex 39 9 0
    endloop
  endfacet
  facet normal 1 0 0
    outer loop
      vertex 39 9 17.25
      vertex 39 9 0
      vertex 39 17.25 0
    endloop
  endfacet
  facet normal 1 0 0
    outer loop
      vertex 39 17.25 17.25
      vertex 39 9 17.25
      vertex 39 17.25 0
    endloop
  endfacet
  facet normal 0 1 0
    outer loop
      vertex 26.25 17.25 0
      vertex 26.25 17.25 17.25
      vertex 39 17.25 0
    endloop
  endfacet
  facet normal 0 1 0
    outer loop
      vertex 39 17.25 0
      vertex 26.25 17.25 17.25
      vertex 39 17.25 17.25
    endloop
  endfacet
  facet normal -1 0 0
    outer loop
      vertex 26.25 9 0
      vertex 26.25 9 17.25
      vertex 26.25 17.25 0
    endloop
  endfacet
  facet normal -1 0 0
    outer loop
      vertex 26.25 17.25 0
      vertex 26.25 9 17.25
      vertex 26.25 17.25 17.25
    endloop
  endfacet
  facet normal 0 1 0
    outer loop
      vertex 0.375 9 0
      vertex 0.375 9 17.25
      vertex 26.25 9 0
    endloop
  endfacet
  facet normal 0 1 0
    outer loop
      vertex 26.25 9 0
      vertex 0.375 9 17.25
      vertex 26.25 9 17.25
    endloop
  endfacet
  facet normal 1 0 0
    outer loop
      vertex 0.375 9 17.25
      vertex 0.375 9 0
      vertex 0.375 12.375 0
    endloop
  endfacet
  facet normal 1 0 0
    outer loop
      vertex 0.375 12.375 17.25
      vertex 0.375 9 17.25
      vertex 0.375 12.375 0
    endloop
  endfacet
  facet normal 0 -1 0
    outer loop
      vertex -12.75 -3 4.5
      vertex -12.75 -3 2.25
      vertex -10.5 -3 2.25
    endloop
  endfacet
  facet normal 0 -1 0
    outer loop
      vertex -10.5 -3 4.5
      vertex -12.75 -3 4.5
      vertex -10.5 -3 2.25
    endloop
  endfacet
  facet normal 0 -1 0
    outer loop
      vertex -10.5 -0.75 4.5
      vertex -10.5 -0.75 2.25
      vertex -8.25 -0.75 2.25
    endloop
  endfacet
  facet normal 0 -1 0
    outer loop
      vertex -0.75 -0.75 12.75
      vertex -10.5 -0.75 4.5
      vertex -8.25 -0.75 6.375
    endloop
  endfacet
  facet normal 0 -1 0
    outer loop
      vertex -8.25 -0.75 6.375
      vertex -10.5 -0.75 4.5
      vertex -8.25 -0.75 2.25
    endloop
  endfacet
  facet normal 0 -1 0
    outer loop
      vertex -2.25 -0.75 10.5
      vertex -8.25 -0.75 6.375
      vertex -6.375 -0.75 6.375
    endloop
  endfacet
  facet normal 0 -1 0
    outer loop
      vertex -0.75 -0.75 4.125
      vertex -6.375 -0.75 6.375
      vertex -6.375 -0.75 4.125
    endloop
  endfacet
  facet normal 0 -1 0
    outer loop
      vertex -2.25 -0.75 6.375
      vertex -6.375 -0.75 6.375
      vertex -0.75 -0.75 4.125
    endloop
  endfacet
  facet normal 0 -1 0
    outer loop
      vertex -2.25 -0.75 10.5
      vertex -6.375 -0.75 6.375
      vertex -2.25 -0.75 6.375
    endloop
  endfacet
  facet normal 0 -1 0
    outer loop
      vertex -0.75 -0.75 6.375
      vertex -2.25 -0.75 6.375
      vertex -0.75 -0.75 4.125
    endloop
  endfacet
  facet normal 0 -1 0
    outer loop
      vertex -2.25 -0.75 10.5
      vertex -0.75 -0.75 12.75
      vertex -8.25 -0.75 6.375
    endloop
  endfacet
  facet normal 0 -1 0
    outer loop
      vertex -8.25 -0.75 10.5
      vertex -8.25 -0.75 6.75
      vertex -6.375 -0.75 10.875
    endloop
  endfacet
  facet normal 0 -1 0
    outer loop
      vertex -0.75 -0.75 10.5
      vertex -0.75 -0.75 12.75
      vertex -2.25 -0.75 10.5
    endloop
  endfacet
  facet normal 0 -1 0
    outer loop
      vertex -12.75 -0.75 10.5
      vertex -8.25 -0.75 15
      vertex -10.5 -0.75 13.125
    endloop
  endfacet
  facet normal 0 -1 0
    outer loop
      vertex -0.75 -0.75 12.75
      vertex -6.375 -0.75 12.75
      vertex -6.375 -0.75 10.875
    endloop
  endfacet
  facet normal 0 -1 0
    outer loop
      vertex -8.25 -0.75 6.75
      vertex -12.75 -0.75 6.75
      vertex -10.5 -0.75 4.5
    endloop
  endfacet
  facet normal 0 -1 0
    outer loop
      vertex -8.25 -0.75 15
      vertex -10.5 -0.75 15
      vertex -10.5 -0.75 13.125
    endloop
  endfacet
  facet normal 0 -1 0
    outer loop
      vertex -12.75 -0.75 10.5
      vertex -10.5 -0.75 13.125
      vertex -12.75 -0.75 13.125
    endloop
  endfacet
  facet normal 0 -1 0
    outer loop
      vertex -0.75 -0.75 12.75
      vertex -8.25 -0.75 6.75
      vertex -10.5 -0.75 4.5
    endloop
  endfacet
  facet normal 0 -1 0
    outer loop
      vertex -0.75 -0.75 12.75
      vertex -6.375 -0.75 10.875
      vertex -8.25 -0.75 6.75
    endloop
  endfacet
  facet normal 0 -1 0
    outer loop
      vertex -6.375 -0.75 10.875
      vertex -8.25 -0.75 10.875
      vertex -8.25 -0.75 10.5
    endloop
  endfacet
  facet normal 0 -1 0
    outer loop
      vertex -12.75 -0.75 10.5
      vertex -8.25 -0.75 10.875
      vertex -8.25 -0.75 15
    endloop
  endfacet
  facet normal 0 -1 0
    outer loop
      vertex -12.75 -0.75 4.5
      vertex -10.5 -0.75 4.5
      vertex -12.75 -0.75 6.75
    endloop
  endfacet
  facet normal 0 -1 0
    outer loop
      vertex -12.75 -0.75 10.5
      vertex -8.25 -0.75 10.5
      vertex -8.25 -0.75 10.875
    endloop
  endfacet
  facet normal 0 0 1
    outer loop
      vertex -12.75 -0.75 4.5
      vertex -12.75 -3 4.5
      vertex -10.5 -3 4.5
    endloop
  endfacet
  facet normal 0 0 1
    outer loop
      vertex -10.5 -0.75 4.5
      vertex -12.75 -0.75 4.5
      vertex -10.5 -3 4.5
    endloop
  endfacet
  facet normal 1 0 0
    outer loop
      vertex -10.5 -3 4.5
      vertex -10.5 -3 2.25
      vertex -10.5 -0.75 2.25
    endloop
  endfacet
  facet normal 1 0 0
    outer loop
      vertex -10.5 -0.75 4.5
      vertex -10.5 -3 4.5
      vertex -10.5 -0.75 2.25
    endloop
  endfacet
  facet normal 0 -1 0
    outer loop
      vertex -12.75 -3 15
      vertex -12.75 -3 13.125
      vertex -10.5 -3 13.125
    endloop
  endfacet
  facet normal 0 -1 0
    outer loop
      vertex -10.5 -3 15
      vertex -12.75 -3 15
      vertex -10.5 -3 13.125
    endloop
  endfacet
  facet normal 1 0 0
    outer loop
      vertex -10.5 -3 15
      vertex -10.5 -3 13.125
      vertex -10.5 -0.75 13.125
    endloop
  endfacet
  facet normal 1 0 0
    outer loop
      vertex -10.5 -0.75 15
      vertex -10.5 -3 15
      vertex -10.5 -0.75 13.125
    endloop
  endfacet
  facet normal 0 0 -1
    outer loop
      vertex -12.75 -3 13.125
      vertex -12.75 -0.75 13.125
      vertex -10.5 -3 13.125
    endloop
  endfacet
  facet normal 0 0 -1
    outer loop
      vertex -10.5 -3 13.125
      vertex -12.75 -0.75 13.125
      vertex -10.5 -0.75 13.125
    endloop
  endfacet
endsolid OpenSCAD_Model
