solid Default
  facet normal -1.000000e+00 0.000000e+00 0.000000e+00
    outer loop
      vertex -1.550000e+01 -1.475000e+01 5.000000e+00
      vertex -1.550000e+01 -9.750001e+00 1.500000e+01
      vertex -1.550000e+01 2.500004e-01 5.000000e+00
    endloop
  endfacet
  facet normal -1.000000e+00 0.000000e+00 0.000000e+00
    outer loop
      vertex -1.550000e+01 -9.750001e+00 1.500000e+01
      vertex -1.550000e+01 -1.475000e+01 2.000000e+01
      vertex -1.550000e+01 -9.750001e+00 2.000000e+01
    endloop
  endfacet
  facet normal -1.000000e+00 0.000000e+00 0.000000e+00
    outer loop
      vertex -1.550000e+01 -1.475000e+01 5.000000e+00
      vertex -1.550000e+01 -1.475000e+01 2.000000e+01
      vertex -1.550000e+01 -9.750001e+00 1.500000e+01
    endloop
  endfacet
  facet normal -1.000000e+00 0.000000e+00 0.000000e+00
    outer loop
      vertex -1.550000e+01 2.500004e-01 1.500000e+01
      vertex -1.550000e+01 2.500004e-01 5.000000e+00
      vertex -1.550000e+01 -9.750001e+00 1.500000e+01
    endloop
  endfacet
  facet normal 0.000000e+00 -1.000000e+00 0.000000e+00
    outer loop
      vertex -1.550000e+01 -1.475000e+01 2.000000e+01
      vertex -1.550000e+01 -1.475000e+01 5.000000e+00
      vertex -1.500000e+01 -1.475000e+01 5.000000e+00
    endloop
  endfacet
  facet normal 0.000000e+00 -1.000000e+00 0.000000e+00
    outer loop
      vertex -1.500000e+01 -1.475000e+01 2.000000e+01
      vertex -1.550000e+01 -1.475000e+01 2.000000e+01
      vertex -1.500000e+01 -1.475000e+01 5.000000e+00
    endloop
  endfacet
  facet normal -0.000000e+00 -0.000000e+00 -1.000000e+00
    outer loop
      vertex -1.550000e+01 -1.475000e+01 5.000000e+00
      vertex -1.550000e+01 2.500004e-01 5.000000e+00
      vertex -1.500000e+01 -1.475000e+01 5.000000e+00
    endloop
  endfacet
  facet normal 0.000000e+00 0.000000e+00 -1.000000e+00
    outer loop
      vertex -1.500000e+01 -1.475000e+01 5.000000e+00
      vertex -1.550000e+01 2.500004e-01 5.000000e+00
      vertex -1.500000e+01 2.500004e-01 5.000000e+00
    endloop
  endfacet
  facet normal 0.000000e+00 1.000000e+00 0.000000e+00
    outer loop
      vertex -1.550000e+01 2.500004e-01 5.000000e+00
      vertex -1.550000e+01 2.500004e-01 1.500000e+01
      vertex -1.500000e+01 2.500004e-01 5.000000e+00
    endloop
  endfacet
  facet normal 0.000000e+00 1.000000e+00 0.000000e+00
    outer loop
      vertex -1.500000e+01 2.500004e-01 5.000000e+00
      vertex -1.550000e+01 2.500004e-01 1.500000e+01
      vertex -1.500000e+01 2.500004e-01 1.500000e+01
    endloop
  endfacet
  facet normal 0.000000e+00 0.000000e+00 1.000000e+00
    outer loop
      vertex -1.550000e+01 2.500004e-01 1.500000e+01
      vertex -1.550000e+01 -9.750001e+00 1.500000e+01
      vertex -1.500000e+01 -9.750001e+00 1.500000e+01
    endloop
  endfacet
  facet normal 0.000000e+00 0.000000e+00 1.000000e+00
    outer loop
      vertex -1.500000e+01 2.500004e-01 1.500000e+01
      vertex -1.550000e+01 2.500004e-01 1.500000e+01
      vertex -1.500000e+01 -9.750001e+00 1.500000e+01
    endloop
  endfacet
  facet normal 0.000000e+00 1.000000e+00 0.000000e+00
    outer loop
      vertex -1.550000e+01 -9.750001e+00 1.500000e+01
      vertex -1.550000e+01 -9.750001e+00 2.000000e+01
      vertex -1.500000e+01 -9.750001e+00 1.500000e+01
    endloop
  endfacet
  facet normal 0.000000e+00 1.000000e+00 0.000000e+00
    outer loop
      vertex -1.500000e+01 -9.750001e+00 1.500000e+01
      vertex -1.550000e+01 -9.750001e+00 2.000000e+01
      vertex -1.500000e+01 -9.750001e+00 2.000000e+01
    endloop
  endfacet
  facet normal 0.000000e+00 0.000000e+00 1.000000e+00
    outer loop
      vertex -1.550000e+01 -9.750001e+00 2.000000e+01
      vertex -1.550000e+01 -1.475000e+01 2.000000e+01
      vertex -1.500000e+01 -1.475000e+01 2.000000e+01
    endloop
  endfacet
  facet normal 0.000000e+00 0.000000e+00 1.000000e+00
    outer loop
      vertex -1.500000e+01 -9.750001e+00 2.000000e+01
      vertex -1.550000e+01 -9.750001e+00 2.000000e+01
      vertex -1.500000e+01 -1.475000e+01 2.000000e+01
    endloop
  endfacet
  facet normal -1.000000e+00 0.000000e+00 0.000000e+00
    outer loop
      vertex -1.500000e+01 -9.750001e+00 2.000000e+01
      vertex -1.500000e+01 2.500004e-01 1.500000e+01
      vertex -1.500000e+01 -9.750001e+00 1.500000e+01
    endloop
  endfacet
  facet normal -1.000000e+00 0.000000e+00 0.000000e+00
    outer loop
      vertex -1.500000e+01 1.025000e+01 2.000000e+01
      vertex -1.500000e+01 -1.975000e+01 3.000000e+01
      vertex -1.500000e+01 1.025000e+01 3.000000e+01
    endloop
  endfacet
  facet normal -1.000000e+00 0.000000e+00 0.000000e+00
    outer loop
      vertex -1.500000e+01 2.500004e-01 1.500000e+01
      vertex -1.500000e+01 -1.975000e+01 3.000000e+01
      vertex -1.500000e+01 1.025000e+01 2.000000e+01
    endloop
  endfacet
  facet normal -1.000000e+00 0.000000e+00 0.000000e+00
    outer loop
      vertex -1.500000e+01 2.500004e-01 1.500000e+01
      vertex -1.500000e+01 2.025000e+01 0.000000e+00
      vertex -1.500000e+01 2.500004e-01 5.000000e+00
    endloop
  endfacet
  facet normal -1.000000e+00 0.000000e+00 0.000000e+00
    outer loop
      vertex -1.500000e+01 -1.975000e+01 0.000000e+00
      vertex -1.500000e+01 -1.975000e+01 3.000000e+01
      vertex -1.500000e+01 -1.475000e+01 2.000000e+01
    endloop
  endfacet
  facet normal -1.000000e+00 0.000000e+00 0.000000e+00
    outer loop
      vertex -1.500000e+01 -1.975000e+01 0.000000e+00
      vertex -1.500000e+01 -1.475000e+01 2.000000e+01
      vertex -1.500000e+01 -1.475000e+01 5.000000e+00
    endloop
  endfacet
  facet normal -1.000000e+00 0.000000e+00 0.000000e+00
    outer loop
      vertex -1.500000e+01 -1.975000e+01 0.000000e+00
      vertex -1.500000e+01 -1.475000e+01 5.000000e+00
      vertex -1.500000e+01 2.025000e+01 0.000000e+00
    endloop
  endfacet
  facet normal -1.000000e+00 0.000000e+00 0.000000e+00
    outer loop
      vertex -1.500000e+01 -1.475000e+01 5.000000e+00
      vertex -1.500000e+01 2.500004e-01 5.000000e+00
      vertex -1.500000e+01 2.025000e+01 0.000000e+00
    endloop
  endfacet
  facet normal -1.000000e+00 -0.000000e+00 -0.000000e+00
    outer loop
      vertex -1.500000e+01 -9.750001e+00 2.000000e+01
      vertex -1.500000e+01 -1.975000e+01 3.000000e+01
      vertex -1.500000e+01 2.500004e-01 1.500000e+01
    endloop
  endfacet
  facet normal -1.000000e+00 0.000000e+00 0.000000e+00
    outer loop
      vertex -1.500000e+01 2.025000e+01 0.000000e+00
      vertex -1.500000e+01 2.500004e-01 1.500000e+01
      vertex -1.500000e+01 1.025000e+01 2.000000e+01
    endloop
  endfacet
  facet normal -1.000000e+00 -0.000000e+00 -0.000000e+00
    outer loop
      vertex -1.500000e+01 -1.475000e+01 2.000000e+01
      vertex -1.500000e+01 -1.975000e+01 3.000000e+01
      vertex -1.500000e+01 -9.750001e+00 2.000000e+01
    endloop
  endfacet
  facet normal -1.000000e+00 0.000000e+00 0.000000e+00
    outer loop
      vertex -1.500000e+01 2.025000e+01 2.000000e+01
      vertex -1.500000e+01 2.025000e+01 0.000000e+00
      vertex -1.500000e+01 1.025000e+01 2.000000e+01
    endloop
  endfacet
  facet normal -0.000000e+00 -0.000000e+00 -1.000000e+00
    outer loop
      vertex -1.500000e+01 -1.975000e+01 0.000000e+00
      vertex -1.500000e+01 2.025000e+01 0.000000e+00
      vertex 1.500000e+01 -1.975000e+01 0.000000e+00
    endloop
  endfacet
  facet normal 0.000000e+00 0.000000e+00 -1.000000e+00
    outer loop
      vertex 1.500000e+01 -1.975000e+01 0.000000e+00
      vertex -1.500000e+01 2.025000e+01 0.000000e+00
      vertex 1.500000e+01 2.025000e+01 0.000000e+00
    endloop
  endfacet
  facet normal 0.000000e+00 1.000000e+00 0.000000e+00
    outer loop
      vertex -1.500000e+01 2.025000e+01 0.000000e+00
      vertex -1.500000e+01 2.025000e+01 2.000000e+01
      vertex 1.500000e+01 2.025000e+01 0.000000e+00
    endloop
  endfacet
  facet normal 0.000000e+00 1.000000e+00 0.000000e+00
    outer loop
      vertex 1.500000e+01 2.025000e+01 0.000000e+00
      vertex -1.500000e+01 2.025000e+01 2.000000e+01
      vertex 1.500000e+01 2.025000e+01 2.000000e+01
    endloop
  endfacet
  facet normal 0.000000e+00 0.000000e+00 1.000000e+00
    outer loop
      vertex 1.500000e+01 1.025000e+01 2.000000e+01
      vertex 1.500000e+01 2.025000e+01 2.000000e+01
      vertex -1.500000e+01 2.025000e+01 2.000000e+01
    endloop
  endfacet
  facet normal 0.000000e+00 0.000000e+00 1.000000e+00
    outer loop
      vertex -1.500000e+01 1.025000e+01 2.000000e+01
      vertex 1.500000e+01 1.025000e+01 2.000000e+01
      vertex -1.500000e+01 2.025000e+01 2.000000e+01
    endloop
  endfacet
  facet normal 0.000000e+00 1.000000e+00 0.000000e+00
    outer loop
      vertex 1.500000e+01 1.025000e+01 3.000000e+01
      vertex 1.500000e+01 1.025000e+01 2.000000e+01
      vertex -1.500000e+01 1.025000e+01 3.000000e+01
    endloop
  endfacet
  facet normal 0.000000e+00 1.000000e+00 0.000000e+00
    outer loop
      vertex -1.500000e+01 1.025000e+01 3.000000e+01
      vertex 1.500000e+01 1.025000e+01 2.000000e+01
      vertex -1.500000e+01 1.025000e+01 2.000000e+01
    endloop
  endfacet
  facet normal 0.000000e+00 0.000000e+00 1.000000e+00
    outer loop
      vertex 5.000000e+00 -1.975000e+01 3.000000e+01
      vertex 1.500000e+01 -1.975000e+01 3.000000e+01
      vertex -1.500000e+01 1.025000e+01 3.000000e+01
    endloop
  endfacet
  facet normal 0.000000e+00 0.000000e+00 1.000000e+00
    outer loop
      vertex -1.500000e+01 1.025000e+01 3.000000e+01
      vertex -1.500000e+01 -1.975000e+01 3.000000e+01
      vertex -5.000000e+00 -1.975000e+01 3.000000e+01
    endloop
  endfacet
  facet normal 0.000000e+00 0.000000e+00 1.000000e+00
    outer loop
      vertex 5.000000e+00 -2.025000e+01 3.000000e+01
      vertex -1.500000e+01 1.025000e+01 3.000000e+01
      vertex -5.000000e+00 -1.975000e+01 3.000000e+01
    endloop
  endfacet
  facet normal 0.000000e+00 0.000000e+00 1.000000e+00
    outer loop
      vertex -5.000000e+00 -2.025000e+01 3.000000e+01
      vertex 5.000000e+00 -2.025000e+01 3.000000e+01
      vertex -5.000000e+00 -1.975000e+01 3.000000e+01
    endloop
  endfacet
  facet normal 0.000000e+00 0.000000e+00 1.000000e+00
    outer loop
      vertex 5.000000e+00 -2.025000e+01 3.000000e+01
      vertex 5.000000e+00 -1.975000e+01 3.000000e+01
      vertex -1.500000e+01 1.025000e+01 3.000000e+01
    endloop
  endfacet
  facet normal 0.000000e+00 0.000000e+00 1.000000e+00
    outer loop
      vertex 1.500000e+01 -1.975000e+01 3.000000e+01
      vertex 1.500000e+01 1.025000e+01 3.000000e+01
      vertex -1.500000e+01 1.025000e+01 3.000000e+01
    endloop
  endfacet
  facet normal 0.000000e+00 -1.000000e+00 0.000000e+00
    outer loop
      vertex -4.500000e+00 -1.975000e+01 1.000000e+01
      vertex -1.500000e+01 -1.975000e+01 0.000000e+00
      vertex 1.500000e+01 -1.975000e+01 0.000000e+00
    endloop
  endfacet
  facet normal 0.000000e+00 -1.000000e+00 0.000000e+00
    outer loop
      vertex -1.450000e+01 -1.975000e+01 1.000000e+01
      vertex -1.500000e+01 -1.975000e+01 3.000000e+01
      vertex -1.500000e+01 -1.975000e+01 0.000000e+00
    endloop
  endfacet
  facet normal 0.000000e+00 -1.000000e+00 0.000000e+00
    outer loop
      vertex 4.500000e+00 -1.975000e+01 1.500000e+01
      vertex 1.450000e+01 -1.975000e+01 1.500000e+01
      vertex 5.000000e+00 -1.975000e+01 2.000000e+01
    endloop
  endfacet
  facet normal 0.000000e+00 -1.000000e+00 0.000000e+00
    outer loop
      vertex 4.500000e+00 -1.975000e+01 1.000000e+01
      vertex 4.500000e+00 -1.975000e+01 1.500000e+01
      vertex -5.000000e+00 -1.975000e+01 2.000000e+01
    endloop
  endfacet
  facet normal 0.000000e+00 -1.000000e+00 0.000000e+00
    outer loop
      vertex -1.450000e+01 -1.975000e+01 1.500000e+01
      vertex -1.500000e+01 -1.975000e+01 3.000000e+01
      vertex -1.450000e+01 -1.975000e+01 1.000000e+01
    endloop
  endfacet
  facet normal 0.000000e+00 -1.000000e+00 0.000000e+00
    outer loop
      vertex -5.000000e+00 -1.975000e+01 2.000000e+01
      vertex -1.500000e+01 -1.975000e+01 3.000000e+01
      vertex -1.450000e+01 -1.975000e+01 1.500000e+01
    endloop
  endfacet
  facet normal 0.000000e+00 -1.000000e+00 0.000000e+00
    outer loop
      vertex 4.500000e+00 -1.975000e+01 1.000000e+01
      vertex -4.500000e+00 -1.975000e+01 1.500000e+01
      vertex 1.500000e+01 -1.975000e+01 0.000000e+00
    endloop
  endfacet
  facet normal 0.000000e+00 -1.000000e+00 0.000000e+00
    outer loop
      vertex -1.450000e+01 -1.975000e+01 1.500000e+01
      vertex -4.500000e+00 -1.975000e+01 1.500000e+01
      vertex -5.000000e+00 -1.975000e+01 2.000000e+01
    endloop
  endfacet
  facet normal 0.000000e+00 -1.000000e+00 0.000000e+00
    outer loop
      vertex -4.500000e+00 -1.975000e+01 1.500000e+01
      vertex -4.500000e+00 -1.975000e+01 1.000000e+01
      vertex 1.500000e+01 -1.975000e+01 0.000000e+00
    endloop
  endfacet
  facet normal 0.000000e+00 -1.000000e+00 0.000000e+00
    outer loop
      vertex -5.000000e+00 -1.975000e+01 2.000000e+01
      vertex -4.500000e+00 -1.975000e+01 1.500000e+01
      vertex 4.500000e+00 -1.975000e+01 1.000000e+01
    endloop
  endfacet
  facet normal -0.000000e+00 -1.000000e+00 -0.000000e+00
    outer loop
      vertex 5.000000e+00 -1.975000e+01 2.000000e+01
      vertex 1.450000e+01 -1.975000e+01 1.500000e+01
      vertex 5.000000e+00 -1.975000e+01 3.000000e+01
    endloop
  endfacet
  facet normal 0.000000e+00 -1.000000e+00 0.000000e+00
    outer loop
      vertex 5.000000e+00 -1.975000e+01 2.000000e+01
      vertex -5.000000e+00 -1.975000e+01 2.000000e+01
      vertex 4.500000e+00 -1.975000e+01 1.500000e+01
    endloop
  endfacet
  facet normal 0.000000e+00 -1.000000e+00 0.000000e+00
    outer loop
      vertex 1.500000e+01 -1.975000e+01 3.000000e+01
      vertex 1.450000e+01 -1.975000e+01 1.500000e+01
      vertex 1.500000e+01 -1.975000e+01 0.000000e+00
    endloop
  endfacet
  facet normal 0.000000e+00 -1.000000e+00 0.000000e+00
    outer loop
      vertex 1.500000e+01 -1.975000e+01 3.000000e+01
      vertex 5.000000e+00 -1.975000e+01 3.000000e+01
      vertex 1.450000e+01 -1.975000e+01 1.500000e+01
    endloop
  endfacet
  facet normal 0.000000e+00 -1.000000e+00 0.000000e+00
    outer loop
      vertex 1.450000e+01 -1.975000e+01 1.500000e+01
      vertex 1.450000e+01 -1.975000e+01 1.000000e+01
      vertex 1.500000e+01 -1.975000e+01 0.000000e+00
    endloop
  endfacet
  facet normal 0.000000e+00 -1.000000e+00 0.000000e+00
    outer loop
      vertex -5.000000e+00 -1.975000e+01 2.000000e+01
      vertex -5.000000e+00 -1.975000e+01 3.000000e+01
      vertex -1.500000e+01 -1.975000e+01 3.000000e+01
    endloop
  endfacet
  facet normal 0.000000e+00 -1.000000e+00 0.000000e+00
    outer loop
      vertex -4.500000e+00 -1.975000e+01 1.000000e+01
      vertex -1.450000e+01 -1.975000e+01 1.000000e+01
      vertex -1.500000e+01 -1.975000e+01 0.000000e+00
    endloop
  endfacet
  facet normal 0.000000e+00 -1.000000e+00 0.000000e+00
    outer loop
      vertex 1.450000e+01 -1.975000e+01 1.000000e+01
      vertex 4.500000e+00 -1.975000e+01 1.000000e+01
      vertex 1.500000e+01 -1.975000e+01 0.000000e+00
    endloop
  endfacet
  facet normal 1.000000e+00 0.000000e+00 0.000000e+00
    outer loop
      vertex 1.500000e+01 -1.475000e+01 5.000000e+00
      vertex 1.500000e+01 -1.975000e+01 0.000000e+00
      vertex 1.500000e+01 2.025000e+01 0.000000e+00
    endloop
  endfacet
  facet normal 1.000000e+00 0.000000e+00 0.000000e+00
    outer loop
      vertex 1.500000e+01 2.500004e-01 1.500000e+01
      vertex 1.500000e+01 -1.975000e+01 3.000000e+01
      vertex 1.500000e+01 -9.750001e+00 2.000000e+01
    endloop
  endfacet
  facet normal 1.000000e+00 0.000000e+00 0.000000e+00
    outer loop
      vertex 1.500000e+01 2.025000e+01 2.000000e+01
      vertex 1.500000e+01 1.025000e+01 2.000000e+01
      vertex 1.500000e+01 2.025000e+01 0.000000e+00
    endloop
  endfacet
  facet normal 1.000000e+00 0.000000e+00 0.000000e+00
    outer loop
      vertex 1.500000e+01 2.500004e-01 1.500000e+01
      vertex 1.500000e+01 2.500004e-01 5.000000e+00
      vertex 1.500000e+01 2.025000e+01 0.000000e+00
    endloop
  endfacet
  facet normal 1.000000e+00 0.000000e+00 0.000000e+00
    outer loop
      vertex 1.500000e+01 2.500004e-01 5.000000e+00
      vertex 1.500000e+01 -1.475000e+01 5.000000e+00
      vertex 1.500000e+01 2.025000e+01 0.000000e+00
    endloop
  endfacet
  facet normal 1.000000e+00 0.000000e+00 0.000000e+00
    outer loop
      vertex 1.500000e+01 -1.975000e+01 3.000000e+01
      vertex 1.500000e+01 -1.975000e+01 0.000000e+00
      vertex 1.500000e+01 -1.475000e+01 5.000000e+00
    endloop
  endfacet
  facet normal 1.000000e+00 0.000000e+00 0.000000e+00
    outer loop
      vertex 1.500000e+01 -9.750001e+00 1.500000e+01
      vertex 1.500000e+01 2.500004e-01 1.500000e+01
      vertex 1.500000e+01 -9.750001e+00 2.000000e+01
    endloop
  endfacet
  facet normal 1.000000e+00 0.000000e+00 0.000000e+00
    outer loop
      vertex 1.500000e+01 -1.975000e+01 3.000000e+01
      vertex 1.500000e+01 -1.475000e+01 5.000000e+00
      vertex 1.500000e+01 -1.475000e+01 2.000000e+01
    endloop
  endfacet
  facet normal 1.000000e+00 0.000000e+00 0.000000e+00
    outer loop
      vertex 1.500000e+01 -1.975000e+01 3.000000e+01
      vertex 1.500000e+01 -1.475000e+01 2.000000e+01
      vertex 1.500000e+01 -9.750001e+00 2.000000e+01
    endloop
  endfacet
  facet normal 1.000000e+00 0.000000e+00 0.000000e+00
    outer loop
      vertex 1.500000e+01 1.025000e+01 2.000000e+01
      vertex 1.500000e+01 2.500004e-01 1.500000e+01
      vertex 1.500000e+01 2.025000e+01 0.000000e+00
    endloop
  endfacet
  facet normal 1.000000e+00 0.000000e+00 0.000000e+00
    outer loop
      vertex 1.500000e+01 1.025000e+01 2.000000e+01
      vertex 1.500000e+01 -1.975000e+01 3.000000e+01
      vertex 1.500000e+01 2.500004e-01 1.500000e+01
    endloop
  endfacet
  facet normal 1.000000e+00 0.000000e+00 0.000000e+00
    outer loop
      vertex 1.500000e+01 1.025000e+01 2.000000e+01
      vertex 1.500000e+01 1.025000e+01 3.000000e+01
      vertex 1.500000e+01 -1.975000e+01 3.000000e+01
    endloop
  endfacet
  facet normal 1.000000e+00 0.000000e+00 0.000000e+00
    outer loop
      vertex 5.000000e+00 -2.025000e+01 3.000000e+01
      vertex 5.000000e+00 -2.025000e+01 2.000000e+01
      vertex 5.000000e+00 -1.975000e+01 2.000000e+01
    endloop
  endfacet
  facet normal 1.000000e+00 0.000000e+00 0.000000e+00
    outer loop
      vertex 5.000000e+00 -1.975000e+01 3.000000e+01
      vertex 5.000000e+00 -2.025000e+01 3.000000e+01
      vertex 5.000000e+00 -1.975000e+01 2.000000e+01
    endloop
  endfacet
  facet normal 0.000000e+00 -1.000000e+00 0.000000e+00
    outer loop
      vertex -5.000000e+00 -2.025000e+01 3.000000e+01
      vertex -5.000000e+00 -2.025000e+01 2.000000e+01
      vertex 5.000000e+00 -2.025000e+01 2.000000e+01
    endloop
  endfacet
  facet normal 0.000000e+00 -1.000000e+00 0.000000e+00
    outer loop
      vertex 5.000000e+00 -2.025000e+01 3.000000e+01
      vertex -5.000000e+00 -2.025000e+01 3.000000e+01
      vertex 5.000000e+00 -2.025000e+01 2.000000e+01
    endloop
  endfacet
  facet normal -1.000000e+00 -0.000000e+00 -0.000000e+00
    outer loop
      vertex -5.000000e+00 -2.025000e+01 2.000000e+01
      vertex -5.000000e+00 -2.025000e+01 3.000000e+01
      vertex -5.000000e+00 -1.975000e+01 2.000000e+01
    endloop
  endfacet
  facet normal -1.000000e+00 0.000000e+00 0.000000e+00
    outer loop
      vertex -5.000000e+00 -1.975000e+01 2.000000e+01
      vertex -5.000000e+00 -2.025000e+01 3.000000e+01
      vertex -5.000000e+00 -1.975000e+01 3.000000e+01
    endloop
  endfacet
  facet normal -0.000000e+00 -0.000000e+00 -1.000000e+00
    outer loop
      vertex -5.000000e+00 -2.025000e+01 2.000000e+01
      vertex -5.000000e+00 -1.975000e+01 2.000000e+01
      vertex 5.000000e+00 -2.025000e+01 2.000000e+01
    endloop
  endfacet
  facet normal 0.000000e+00 0.000000e+00 -1.000000e+00
    outer loop
      vertex 5.000000e+00 -2.025000e+01 2.000000e+01
      vertex -5.000000e+00 -1.975000e+01 2.000000e+01
      vertex 5.000000e+00 -1.975000e+01 2.000000e+01
    endloop
  endfacet
  facet normal 1.000000e+00 0.000000e+00 0.000000e+00
    outer loop
      vertex -1.450000e+01 -1.950000e+01 1.000000e+01
      vertex -1.450000e+01 -1.950000e+01 1.500000e+01
      vertex -1.450000e+01 -1.975000e+01 1.500000e+01
    endloop
  endfacet
  facet normal 1.000000e+00 0.000000e+00 0.000000e+00
    outer loop
      vertex -1.450000e+01 -1.975000e+01 1.000000e+01
      vertex -1.450000e+01 -1.950000e+01 1.000000e+01
      vertex -1.450000e+01 -1.975000e+01 1.500000e+01
    endloop
  endfacet
  facet normal 0.000000e+00 0.000000e+00 1.000000e+00
    outer loop
      vertex -4.500000e+00 -1.975000e+01 1.000000e+01
      vertex -4.500000e+00 -1.925000e+01 1.000000e+01
      vertex -9.500000e+00 -1.925000e+01 1.000000e+01
    endloop
  endfacet
  facet normal 0.000000e+00 0.000000e+00 1.000000e+00
    outer loop
      vertex -1.450000e+01 -1.950000e+01 1.000000e+01
      vertex -4.500000e+00 -1.975000e+01 1.000000e+01
      vertex -9.500000e+00 -1.950000e+01 1.000000e+01
    endloop
  endfacet
  facet normal 0.000000e+00 0.000000e+00 1.000000e+00
    outer loop
      vertex -9.500000e+00 -1.950000e+01 1.000000e+01
      vertex -4.500000e+00 -1.975000e+01 1.000000e+01
      vertex -9.500000e+00 -1.925000e+01 1.000000e+01
    endloop
  endfacet
  facet normal 0.000000e+00 0.000000e+00 1.000000e+00
    outer loop
      vertex -1.450000e+01 -1.975000e+01 1.000000e+01
      vertex -4.500000e+00 -1.975000e+01 1.000000e+01
      vertex -1.450000e+01 -1.950000e+01 1.000000e+01
    endloop
  endfacet
  facet normal -1.000000e+00 0.000000e+00 0.000000e+00
    outer loop
      vertex -4.500000e+00 -1.925000e+01 1.500000e+01
      vertex -4.500000e+00 -1.925000e+01 1.000000e+01
      vertex -4.500000e+00 -1.975000e+01 1.500000e+01
    endloop
  endfacet
  facet normal -1.000000e+00 0.000000e+00 0.000000e+00
    outer loop
      vertex -4.500000e+00 -1.975000e+01 1.500000e+01
      vertex -4.500000e+00 -1.925000e+01 1.000000e+01
      vertex -4.500000e+00 -1.975000e+01 1.000000e+01
    endloop
  endfacet
  facet normal 0.000000e+00 0.000000e+00 -1.000000e+00
    outer loop
      vertex -9.500000e+00 -1.950000e+01 1.500000e+01
      vertex -9.500000e+00 -1.925000e+01 1.500000e+01
      vertex -4.500000e+00 -1.925000e+01 1.500000e+01
    endloop
  endfacet
  facet normal 0.000000e+00 0.000000e+00 -1.000000e+00
    outer loop
      vertex -9.500000e+00 -1.950000e+01 1.500000e+01
      vertex -4.500000e+00 -1.925000e+01 1.500000e+01
      vertex -4.500000e+00 -1.975000e+01 1.500000e+01
    endloop
  endfacet
  facet normal 0.000000e+00 0.000000e+00 -1.000000e+00
    outer loop
      vertex -9.500000e+00 -1.950000e+01 1.500000e+01
      vertex -4.500000e+00 -1.975000e+01 1.500000e+01
      vertex -1.450000e+01 -1.950000e+01 1.500000e+01
    endloop
  endfacet
  facet normal 0.000000e+00 0.000000e+00 -1.000000e+00
    outer loop
      vertex -4.500000e+00 -1.975000e+01 1.500000e+01
      vertex -1.450000e+01 -1.975000e+01 1.500000e+01
      vertex -1.450000e+01 -1.950000e+01 1.500000e+01
    endloop
  endfacet
  facet normal 1.000000e+00 0.000000e+00 0.000000e+00
    outer loop
      vertex 4.500000e+00 -1.925000e+01 1.000000e+01
      vertex 4.500000e+00 -1.925000e+01 1.500000e+01
      vertex 4.500000e+00 -1.975000e+01 1.500000e+01
    endloop
  endfacet
  facet normal 1.000000e+00 0.000000e+00 0.000000e+00
    outer loop
      vertex 4.500000e+00 -1.975000e+01 1.000000e+01
      vertex 4.500000e+00 -1.925000e+01 1.000000e+01
      vertex 4.500000e+00 -1.975000e+01 1.500000e+01
    endloop
  endfacet
  facet normal 0.000000e+00 0.000000e+00 1.000000e+00
    outer loop
      vertex 1.450000e+01 -1.975000e+01 1.000000e+01
      vertex 1.450000e+01 -1.950000e+01 1.000000e+01
      vertex 9.500000e+00 -1.950000e+01 1.000000e+01
    endloop
  endfacet
  facet normal 0.000000e+00 0.000000e+00 1.000000e+00
    outer loop
      vertex 4.500000e+00 -1.975000e+01 1.000000e+01
      vertex 1.450000e+01 -1.975000e+01 1.000000e+01
      vertex 9.500000e+00 -1.950000e+01 1.000000e+01
    endloop
  endfacet
  facet normal 0.000000e+00 0.000000e+00 1.000000e+00
    outer loop
      vertex 9.500000e+00 -1.925000e+01 1.000000e+01
      vertex 4.500000e+00 -1.925000e+01 1.000000e+01
      vertex 9.500000e+00 -1.950000e+01 1.000000e+01
    endloop
  endfacet
  facet normal 0.000000e+00 0.000000e+00 1.000000e+00
    outer loop
      vertex 4.500000e+00 -1.925000e+01 1.000000e+01
      vertex 4.500000e+00 -1.975000e+01 1.000000e+01
      vertex 9.500000e+00 -1.950000e+01 1.000000e+01
    endloop
  endfacet
  facet normal -1.000000e+00 0.000000e+00 0.000000e+00
    outer loop
      vertex 1.450000e+01 -1.950000e+01 1.500000e+01
      vertex 1.450000e+01 -1.950000e+01 1.000000e+01
      vertex 1.450000e+01 -1.975000e+01 1.500000e+01
    endloop
  endfacet
  facet normal -1.000000e+00 0.000000e+00 0.000000e+00
    outer loop
      vertex 1.450000e+01 -1.975000e+01 1.500000e+01
      vertex 1.450000e+01 -1.950000e+01 1.000000e+01
      vertex 1.450000e+01 -1.975000e+01 1.000000e+01
    endloop
  endfacet
  facet normal 0.000000e+00 0.000000e+00 -1.000000e+00
    outer loop
      vertex 9.500000e+00 -1.925000e+01 1.500000e+01
      vertex 9.500000e+00 -1.950000e+01 1.500000e+01
      vertex 4.500000e+00 -1.925000e+01 1.500000e+01
    endloop
  endfacet
  facet normal 0.000000e+00 0.000000e+00 -1.000000e+00
    outer loop
      vertex 1.450000e+01 -1.975000e+01 1.500000e+01
      vertex 9.500000e+00 -1.950000e+01 1.500000e+01
      vertex 1.450000e+01 -1.950000e+01 1.500000e+01
    endloop
  endfacet
  facet normal 0.000000e+00 0.000000e+00 -1.000000e+00
    outer loop
      vertex 4.500000e+00 -1.975000e+01 1.500000e+01
      vertex 9.500000e+00 -1.950000e+01 1.500000e+01
      vertex 1.450000e+01 -1.975000e+01 1.500000e+01
    endloop
  endfacet
  facet normal 0.000000e+00 0.000000e+00 -1.000000e+00
    outer loop
      vertex 4.500000e+00 -1.925000e+01 1.500000e+01
      vertex 9.500000e+00 -1.950000e+01 1.500000e+01
      vertex 4.500000e+00 -1.975000e+01 1.500000e+01
    endloop
  endfacet
  facet normal 0.000000e+00 -1.000000e+00 0.000000e+00
    outer loop
      vertex 1.500000e+01 -1.475000e+01 2.000000e+01
      vertex 1.500000e+01 -1.475000e+01 5.000000e+00
      vertex 1.550000e+01 -1.475000e+01 5.000000e+00
    endloop
  endfacet
  facet normal 0.000000e+00 -1.000000e+00 0.000000e+00
    outer loop
      vertex 1.550000e+01 -1.475000e+01 2.000000e+01
      vertex 1.500000e+01 -1.475000e+01 2.000000e+01
      vertex 1.550000e+01 -1.475000e+01 5.000000e+00
    endloop
  endfacet
  facet normal -0.000000e+00 -0.000000e+00 -1.000000e+00
    outer loop
      vertex 1.500000e+01 -1.475000e+01 5.000000e+00
      vertex 1.500000e+01 2.500004e-01 5.000000e+00
      vertex 1.550000e+01 -1.475000e+01 5.000000e+00
    endloop
  endfacet
  facet normal 0.000000e+00 0.000000e+00 -1.000000e+00
    outer loop
      vertex 1.550000e+01 -1.475000e+01 5.000000e+00
      vertex 1.500000e+01 2.500004e-01 5.000000e+00
      vertex 1.550000e+01 2.500004e-01 5.000000e+00
    endloop
  endfacet
  facet normal 0.000000e+00 1.000000e+00 0.000000e+00
    outer loop
      vertex 1.500000e+01 2.500004e-01 5.000000e+00
      vertex 1.500000e+01 2.500004e-01 1.500000e+01
      vertex 1.550000e+01 2.500004e-01 5.000000e+00
    endloop
  endfacet
  facet normal 0.000000e+00 1.000000e+00 0.000000e+00
    outer loop
      vertex 1.550000e+01 2.500004e-01 5.000000e+00
      vertex 1.500000e+01 2.500004e-01 1.500000e+01
      vertex 1.550000e+01 2.500004e-01 1.500000e+01
    endloop
  endfacet
  facet normal 0.000000e+00 0.000000e+00 1.000000e+00
    outer loop
      vertex 1.500000e+01 2.500004e-01 1.500000e+01
      vertex 1.500000e+01 -9.750001e+00 1.500000e+01
      vertex 1.550000e+01 -9.750001e+00 1.500000e+01
    endloop
  endfacet
  facet normal 0.000000e+00 0.000000e+00 1.000000e+00
    outer loop
      vertex 1.550000e+01 2.500004e-01 1.500000e+01
      vertex 1.500000e+01 2.500004e-01 1.500000e+01
      vertex 1.550000e+01 -9.750001e+00 1.500000e+01
    endloop
  endfacet
  facet normal 0.000000e+00 1.000000e+00 0.000000e+00
    outer loop
      vertex 1.500000e+01 -9.750001e+00 1.500000e+01
      vertex 1.500000e+01 -9.750001e+00 2.000000e+01
      vertex 1.550000e+01 -9.750001e+00 1.500000e+01
    endloop
  endfacet
  facet normal 0.000000e+00 1.000000e+00 0.000000e+00
    outer loop
      vertex 1.550000e+01 -9.750001e+00 1.500000e+01
      vertex 1.500000e+01 -9.750001e+00 2.000000e+01
      vertex 1.550000e+01 -9.750001e+00 2.000000e+01
    endloop
  endfacet
  facet normal 0.000000e+00 0.000000e+00 1.000000e+00
    outer loop
      vertex 1.500000e+01 -9.750001e+00 2.000000e+01
      vertex 1.500000e+01 -1.475000e+01 2.000000e+01
      vertex 1.550000e+01 -1.475000e+01 2.000000e+01
    endloop
  endfacet
  facet normal 0.000000e+00 0.000000e+00 1.000000e+00
    outer loop
      vertex 1.550000e+01 -9.750001e+00 2.000000e+01
      vertex 1.500000e+01 -9.750001e+00 2.000000e+01
      vertex 1.550000e+01 -1.475000e+01 2.000000e+01
    endloop
  endfacet
  facet normal 0.000000e+00 -1.000000e+00 0.000000e+00
    outer loop
      vertex -9.500000e+00 -1.950000e+01 1.000000e+01
      vertex -9.500000e+00 -1.950000e+01 1.500000e+01
      vertex -1.450000e+01 -1.950000e+01 1.500000e+01
    endloop
  endfacet
  facet normal -0.000000e+00 -1.000000e+00 -0.000000e+00
    outer loop
      vertex -1.450000e+01 -1.950000e+01 1.000000e+01
      vertex -9.500000e+00 -1.950000e+01 1.000000e+01
      vertex -1.450000e+01 -1.950000e+01 1.500000e+01
    endloop
  endfacet
  facet normal 1.000000e+00 0.000000e+00 0.000000e+00
    outer loop
      vertex -9.500000e+00 -1.925000e+01 1.000000e+01
      vertex -9.500000e+00 -1.925000e+01 1.500000e+01
      vertex -9.500000e+00 -1.950000e+01 1.500000e+01
    endloop
  endfacet
  facet normal 1.000000e+00 0.000000e+00 0.000000e+00
    outer loop
      vertex -9.500000e+00 -1.950000e+01 1.000000e+01
      vertex -9.500000e+00 -1.925000e+01 1.000000e+01
      vertex -9.500000e+00 -1.950000e+01 1.500000e+01
    endloop
  endfacet
  facet normal 0.000000e+00 -1.000000e+00 0.000000e+00
    outer loop
      vertex -4.500000e+00 -1.925000e+01 1.000000e+01
      vertex -4.500000e+00 -1.925000e+01 1.500000e+01
      vertex -9.500000e+00 -1.925000e+01 1.500000e+01
    endloop
  endfacet
  facet normal -0.000000e+00 -1.000000e+00 -0.000000e+00
    outer loop
      vertex -9.500000e+00 -1.925000e+01 1.000000e+01
      vertex -4.500000e+00 -1.925000e+01 1.000000e+01
      vertex -9.500000e+00 -1.925000e+01 1.500000e+01
    endloop
  endfacet
  facet normal 0.000000e+00 -1.000000e+00 0.000000e+00
    outer loop
      vertex 9.500000e+00 -1.925000e+01 1.000000e+01
      vertex 9.500000e+00 -1.925000e+01 1.500000e+01
      vertex 4.500000e+00 -1.925000e+01 1.500000e+01
    endloop
  endfacet
  facet normal -0.000000e+00 -1.000000e+00 -0.000000e+00
    outer loop
      vertex 4.500000e+00 -1.925000e+01 1.000000e+01
      vertex 9.500000e+00 -1.925000e+01 1.000000e+01
      vertex 4.500000e+00 -1.925000e+01 1.500000e+01
    endloop
  endfacet
  facet normal -1.000000e+00 0.000000e+00 0.000000e+00
    outer loop
      vertex 9.500000e+00 -1.925000e+01 1.500000e+01
      vertex 9.500000e+00 -1.925000e+01 1.000000e+01
      vertex 9.500000e+00 -1.950000e+01 1.500000e+01
    endloop
  endfacet
  facet normal -1.000000e+00 0.000000e+00 0.000000e+00
    outer loop
      vertex 9.500000e+00 -1.950000e+01 1.500000e+01
      vertex 9.500000e+00 -1.925000e+01 1.000000e+01
      vertex 9.500000e+00 -1.950000e+01 1.000000e+01
    endloop
  endfacet
  facet normal 0.000000e+00 -1.000000e+00 0.000000e+00
    outer loop
      vertex 1.450000e+01 -1.950000e+01 1.000000e+01
      vertex 1.450000e+01 -1.950000e+01 1.500000e+01
      vertex 9.500000e+00 -1.950000e+01 1.500000e+01
    endloop
  endfacet
  facet normal -0.000000e+00 -1.000000e+00 -0.000000e+00
    outer loop
      vertex 9.500000e+00 -1.950000e+01 1.000000e+01
      vertex 1.450000e+01 -1.950000e+01 1.000000e+01
      vertex 9.500000e+00 -1.950000e+01 1.500000e+01
    endloop
  endfacet
  facet normal 1.000000e+00 0.000000e+00 0.000000e+00
    outer loop
      vertex 1.550000e+01 -9.750001e+00 1.500000e+01
      vertex 1.550000e+01 -1.475000e+01 5.000000e+00
      vertex 1.550000e+01 2.500004e-01 5.000000e+00
    endloop
  endfacet
  facet normal 1.000000e+00 0.000000e+00 0.000000e+00
    outer loop
      vertex 1.550000e+01 -9.750001e+00 1.500000e+01
      vertex 1.550000e+01 -1.475000e+01 2.000000e+01
      vertex 1.550000e+01 -1.475000e+01 5.000000e+00
    endloop
  endfacet
  facet normal 1.000000e+00 0.000000e+00 0.000000e+00
    outer loop
      vertex 1.550000e+01 2.500004e-01 1.500000e+01
      vertex 1.550000e+01 -9.750001e+00 1.500000e+01
      vertex 1.550000e+01 2.500004e-01 5.000000e+00
    endloop
  endfacet
  facet normal 1.000000e+00 0.000000e+00 0.000000e+00
    outer loop
      vertex 1.550000e+01 -9.750001e+00 1.500000e+01
      vertex 1.550000e+01 -9.750001e+00 2.000000e+01
      vertex 1.550000e+01 -1.475000e+01 2.000000e+01
    endloop
  endfacet
endsolid Default
